<svg xmlns="http://www.w3.org/2000/svg" xmlns:xlink="http://www.w3.org/1999/xlink" contentStyleType="text/css" data-diagram-type="SEQUENCE" height="3006px" preserveAspectRatio="none" style="width:1437px;height:3006px;background:#003153;" version="1.1" viewBox="0 0 1437 3006" width="1437px" zoomAndPan="magnify"><title>Flujo 3: Operaci&#243;n de Operadores Rhenus</title><defs/><g><rect fill="#003153" height="3006" style="stroke:transparent;stroke-width:1;" width="1437" x="0" y="0"/><text fill="#D9D3D0" font-family="Verdana" font-size="22" font-weight="bold" lengthAdjust="spacing" textLength="514.4111" x="460.1155" y="37.1182">Flujo 3: Operaci&#243;n de Operadores Rhenus</text><g><title>Web</title><rect fill="#003153" height="2622.6553" style="stroke:#D9D3D0;stroke-width:1;" width="10" x="510.6138" y="223.3652"/></g><g><title>API</title><rect fill="#003153" height="215.7925" style="stroke:#D9D3D0;stroke-width:1;" width="10" x="816.1367" y="253.1646"/></g><g><title>API</title><rect fill="#003153" height="89.3979" style="stroke:#D9D3D0;stroke-width:1;" width="10" x="816.1367" y="498.7563"/></g><g><title>API</title><rect fill="#003153" height="171.5952" style="stroke:#D9D3D0;stroke-width:1;" width="10" x="816.1367" y="924.144"/></g><g><title>API</title><rect fill="#003153" height="212.1938" style="stroke:#D9D3D0;stroke-width:1;" width="10" x="816.1367" y="1624.0908"/></g><g><title>API</title><rect fill="#003153" height="326.9897" style="stroke:#D9D3D0;stroke-width:1;" width="10" x="816.1367" y="2451.4321"/></g><g><title>PostgreSQL</title><rect fill="#003153" height="140.3945" style="stroke:#D9D3D0;stroke-width:1;" width="10" x="1147.8438" y="298.7632"/></g><g><title>PostgreSQL</title><rect fill="#003153" height="29.7993" style="stroke:#D9D3D0;stroke-width:1;" width="10" x="1147.8438" y="528.5557"/></g><g><title>PostgreSQL</title><rect fill="#003153" height="29.7993" style="stroke:#D9D3D0;stroke-width:1;" width="10" x="1147.8438" y="1701.2881"/></g><g><title>PostgreSQL</title><rect fill="#003153" height="29.7993" style="stroke:#D9D3D0;stroke-width:1;" width="10" x="1147.8438" y="1776.686"/></g><g><title>PostgreSQL</title><rect fill="#003153" height="29.7993" style="stroke:#D9D3D0;stroke-width:1;" width="10" x="1147.8438" y="2544.4287"/></g><g><title>PostgreSQL</title><rect fill="#003153" height="128.7959" style="stroke:#D9D3D0;stroke-width:1;" width="10" x="1147.8438" y="2619.8267"/></g><rect fill="#003153" height="2083.271" style="stroke:#D9D3D0;stroke-width:1;" width="1406.6421" x="14" y="755.7495"/><rect fill="#003153" height="1622.2847" style="stroke:transparent;stroke-width:1;" width="1406.6421" x="14" y="1216.7358"/><rect fill="#003153" height="1486.9194" style="stroke:#D9D3D0;stroke-width:1;" width="1386.6421" x="24" y="1345.1011"/><rect fill="#003153" height="779.9434" style="stroke:transparent;stroke-width:1;" width="1386.6421" x="24" y="2052.0771"/><g><title>Operador</title><rect fill="transparent" height="2759.8525" width="8" x="157.8296" y="147.7666"/><line style="stroke:#D9D3D0;stroke-width:1;" x1="161" x2="161" y1="147.7666" y2="2907.6191"/></g><g><title>Web</title><rect fill="transparent" height="2759.8525" width="8" x="511.6138" y="147.7666"/><line style="stroke:#D9D3D0;stroke-width:1;" x1="515.0557" x2="515.0557" y1="147.7666" y2="2907.6191"/></g><g><title>API</title><rect fill="transparent" height="2759.8525" width="8" x="817.1367" y="147.7666"/><line style="stroke:#D9D3D0;stroke-width:1;" x1="820.25" x2="820.25" y1="147.7666" y2="2907.6191"/></g><g><title>PostgreSQL</title><rect fill="transparent" height="2759.8525" width="8" x="1148.8438" y="147.7666"/><line style="stroke:#D9D3D0;stroke-width:1;" x1="1152.2588" x2="1152.2588" y1="147.7666" y2="2907.6191"/></g><text fill="#D9D3D0" font-family="Verdana" font-size="14" lengthAdjust="spacing" textLength="65.6592" x="126" y="127.8125">Operador</text><text fill="#D9D3D0" font-family="Verdana" font-size="14" lengthAdjust="spacing" textLength="51.9463" x="132.8564" y="144.8271">Rhenus</text><ellipse cx="161.8296" cy="61.7373" fill="#003153" rx="8" ry="8" style="stroke:#D9D3D0;stroke-width:1;"/><path d="M161.8296,69.7373 L161.8296,96.7373 M148.8296,77.7373 L174.8296,77.7373 M161.8296,96.7373 L148.8296,111.7373 M161.8296,96.7373 L174.8296,111.7373 " fill="transparent" style="stroke:#D9D3D0;stroke-width:1;"/><text fill="#D9D3D0" font-family="Verdana" font-size="14" lengthAdjust="spacing" textLength="65.6592" x="126" y="2920.6943">Operador</text><text fill="#D9D3D0" font-family="Verdana" font-size="14" lengthAdjust="spacing" textLength="51.9463" x="132.8564" y="2937.709">Rhenus</text><ellipse cx="161.8296" cy="2949.6484" fill="#003153" rx="8" ry="8" style="stroke:#D9D3D0;stroke-width:1;"/><path d="M161.8296,2957.6484 L161.8296,2984.6484 M148.8296,2965.6484 L174.8296,2965.6484 M161.8296,2984.6484 L148.8296,2999.6484 M161.8296,2984.6484 L174.8296,2999.6484 " fill="transparent" style="stroke:#D9D3D0;stroke-width:1;"/><rect fill="#003153" height="48.0293" rx="2.5" ry="2.5" style="stroke:#D9D3D0;stroke-width:1;" width="91.1162" x="470.0557" y="98.7373"/><text fill="#D9D3D0" font-family="Verdana" font-size="14" lengthAdjust="spacing" textLength="30.9053" x="500.1611" y="119.8125">Web</text><text fill="#D9D3D0" font-family="Verdana" font-size="14" lengthAdjust="spacing" textLength="77.1162" x="477.0557" y="136.8271">Application</text><rect fill="#003153" height="48.0293" rx="2.5" ry="2.5" style="stroke:#D9D3D0;stroke-width:1;" width="91.1162" x="470.0557" y="2906.6191"/><text fill="#D9D3D0" font-family="Verdana" font-size="14" lengthAdjust="spacing" textLength="30.9053" x="500.1611" y="2927.6943">Web</text><text fill="#D9D3D0" font-family="Verdana" font-size="14" lengthAdjust="spacing" textLength="77.1162" x="477.0557" y="2944.709">Application</text><rect fill="#003153" height="48.0293" rx="2.5" ry="2.5" style="stroke:#D9D3D0;stroke-width:1;" width="73.7734" x="784.25" y="98.7373"/><text fill="#D9D3D0" font-family="Verdana" font-size="14" lengthAdjust="spacing" textLength="23.9053" x="809.1841" y="119.8125">API</text><text fill="#D9D3D0" font-family="Verdana" font-size="14" lengthAdjust="spacing" textLength="59.7734" x="791.25" y="136.8271">Function</text><rect fill="#003153" height="48.0293" rx="2.5" ry="2.5" style="stroke:#D9D3D0;stroke-width:1;" width="73.7734" x="784.25" y="2906.6191"/><text fill="#D9D3D0" font-family="Verdana" font-size="14" lengthAdjust="spacing" textLength="23.9053" x="809.1841" y="2927.6943">API</text><text fill="#D9D3D0" font-family="Verdana" font-size="14" lengthAdjust="spacing" textLength="59.7734" x="791.25" y="2944.709">Function</text><text fill="#D9D3D0" font-family="Verdana" font-size="14" lengthAdjust="spacing" textLength="81.1699" x="1109.2588" y="144.8271">PostgreSQL</text><path d="M1134.8438,94.752 C1134.8438,84.752 1152.8438,84.752 1152.8438,84.752 C1152.8438,84.752 1170.8438,84.752 1170.8438,94.752 L1170.8438,120.752 C1170.8438,130.752 1152.8438,130.752 1152.8438,130.752 C1152.8438,130.752 1134.8438,130.752 1134.8438,120.752 L1134.8438,94.752 " fill="#003153" style="stroke:#D9D3D0;stroke-width:1.5;"/><path d="M1134.8438,94.752 C1134.8438,104.752 1152.8438,104.752 1152.8438,104.752 C1152.8438,104.752 1170.8438,104.752 1170.8438,94.752 " fill="transparent" style="stroke:#D9D3D0;stroke-width:1.5;"/><text fill="#D9D3D0" font-family="Verdana" font-size="14" lengthAdjust="spacing" textLength="81.1699" x="1109.2588" y="2920.6943">PostgreSQL</text><path d="M1134.8438,2933.6338 C1134.8438,2923.6338 1152.8438,2923.6338 1152.8438,2923.6338 C1152.8438,2923.6338 1170.8438,2923.6338 1170.8438,2933.6338 L1170.8438,2959.6338 C1170.8438,2969.6338 1152.8438,2969.6338 1152.8438,2969.6338 C1152.8438,2969.6338 1134.8438,2969.6338 1134.8438,2959.6338 L1134.8438,2933.6338 " fill="#003153" style="stroke:#D9D3D0;stroke-width:1.5;"/><path d="M1134.8438,2933.6338 C1134.8438,2943.6338 1152.8438,2943.6338 1152.8438,2943.6338 C1152.8438,2943.6338 1170.8438,2943.6338 1170.8438,2933.6338 " fill="transparent" style="stroke:#D9D3D0;stroke-width:1.5;"/><g><title>Web</title><rect fill="#003153" height="2622.6553" style="stroke:#D9D3D0;stroke-width:1;" width="10" x="510.6138" y="223.3652"/></g><g><title>API</title><rect fill="#003153" height="215.7925" style="stroke:#D9D3D0;stroke-width:1;" width="10" x="816.1367" y="253.1646"/></g><g><title>API</title><rect fill="#003153" height="89.3979" style="stroke:#D9D3D0;stroke-width:1;" width="10" x="816.1367" y="498.7563"/></g><g><title>API</title><rect fill="#003153" height="171.5952" style="stroke:#D9D3D0;stroke-width:1;" width="10" x="816.1367" y="924.144"/></g><g><title>API</title><rect fill="#003153" height="212.1938" style="stroke:#D9D3D0;stroke-width:1;" width="10" x="816.1367" y="1624.0908"/></g><g><title>API</title><rect fill="#003153" height="326.9897" style="stroke:#D9D3D0;stroke-width:1;" width="10" x="816.1367" y="2451.4321"/></g><g><title>PostgreSQL</title><rect fill="#003153" height="140.3945" style="stroke:#D9D3D0;stroke-width:1;" width="10" x="1147.8438" y="298.7632"/></g><g><title>PostgreSQL</title><rect fill="#003153" height="29.7993" style="stroke:#D9D3D0;stroke-width:1;" width="10" x="1147.8438" y="528.5557"/></g><g><title>PostgreSQL</title><rect fill="#003153" height="29.7993" style="stroke:#D9D3D0;stroke-width:1;" width="10" x="1147.8438" y="1701.2881"/></g><g><title>PostgreSQL</title><rect fill="#003153" height="29.7993" style="stroke:#D9D3D0;stroke-width:1;" width="10" x="1147.8438" y="1776.686"/></g><g><title>PostgreSQL</title><rect fill="#003153" height="29.7993" style="stroke:#D9D3D0;stroke-width:1;" width="10" x="1147.8438" y="2544.4287"/></g><g><title>PostgreSQL</title><rect fill="#003153" height="128.7959" style="stroke:#D9D3D0;stroke-width:1;" width="10" x="1147.8438" y="2619.8267"/></g><rect fill="#003153" height="3" style="stroke:#003153;stroke-width:1;" width="1425.6421" x="5" y="178.6663"/><line style="stroke:#D9D3D0;stroke-width:0.5;" x1="5" x2="1430.6421" y1="178.6663" y2="178.6663"/><line style="stroke:#D9D3D0;stroke-width:0.5;" x1="5" x2="1430.6421" y1="181.6663" y2="181.6663"/><rect fill="#003153" height="23.7993" style="stroke:#D9D3D0;stroke-width:1;" width="223.8281" x="605.907" y="167.7666"/><text fill="#D9D3D0" font-family="Verdana" font-size="13" font-weight="bold" lengthAdjust="spacing" textLength="205.3848" x="611.907" y="184.8364">Visualizaci&#243;n del Dashboard</text><polygon fill="#D9D3D0" points="498.6138,219.3652,508.6138,223.3652,498.6138,227.3652,502.6138,223.3652" style="stroke:#D9D3D0;stroke-width:1;"/><line style="stroke:#D9D3D0;stroke-width:1;" x1="161.8296" x2="504.6138" y1="223.3652" y2="223.3652"/><text fill="#D9D3D0" font-family="Verdana" font-size="13" lengthAdjust="spacing" textLength="134.8877" x="268.7778" y="218.6357">Accede al dashboard</text><polygon fill="#D9D3D0" points="804.1367,249.1646,814.1367,253.1646,804.1367,257.1646,808.1367,253.1646" style="stroke:#D9D3D0;stroke-width:1;"/><line style="stroke:#D9D3D0;stroke-width:1;" x1="520.6138" x2="810.1367" y1="253.1646" y2="253.1646"/><text fill="#D9D3D0" font-family="Verdana" font-size="13" lengthAdjust="spacing" textLength="272.1177" x="532.3164" y="248.4351">GET /recommendations?status=PENDING</text><polygon fill="#D9D3D0" points="1135.8438,294.7632,1145.8438,298.7632,1135.8438,302.7632,1139.8438,298.7632" style="stroke:#D9D3D0;stroke-width:1;"/><line style="stroke:#D9D3D0;stroke-width:1;" x1="826.1367" x2="1141.8438" y1="298.7632" y2="298.7632"/><text fill="#D9D3D0" font-family="Verdana" font-size="13" lengthAdjust="spacing" textLength="243.5913" x="865.1946" y="278.2344">SELECT recomendaciones pendientes</text><text fill="#D9D3D0" font-family="Verdana" font-size="13" lengthAdjust="spacing" textLength="225.9702" x="874.0051" y="294.0337">con detalles completos de &#243;rdenes</text><polygon fill="#D9D3D0" points="837.1367,435.1577,827.1367,439.1577,837.1367,443.1577,833.1367,439.1577" style="stroke:#D9D3D0;stroke-width:1;"/><line style="stroke:#D9D3D0;stroke-width:1;stroke-dasharray:2.0,2.0;" x1="831.1367" x2="1151.8438" y1="439.1577" y2="439.1577"/><text fill="#D9D3D0" font-family="Verdana" font-size="13" lengthAdjust="spacing" textLength="174.8462" x="902.0671" y="323.833">Lista de recomendaciones:</text><text fill="#D9D3D0" font-family="Verdana" font-size="13" lengthAdjust="spacing" textLength="5.9033" x="986.5386" y="339.6323">[</text><text fill="#D9D3D0" font-family="Verdana" font-size="13" lengthAdjust="spacing" textLength="8.252" x="989.9346" y="355.4316">{</text><text fill="#D9D3D0" font-family="Verdana" font-size="13" lengthAdjust="spacing" textLength="206.1528" x="895.5544" y="371.231">id, import_order, export_order,</text><text fill="#D9D3D0" font-family="Verdana" font-size="13" lengthAdjust="spacing" textLength="225.1323" x="886.0647" y="387.0303">ruta_propuesta, ahorro_estimado,</text><text fill="#D9D3D0" font-family="Verdana" font-size="13" lengthAdjust="spacing" textLength="136.0938" x="930.584" y="402.8296">confidence_score, ...</text><text fill="#D9D3D0" font-family="Verdana" font-size="13" lengthAdjust="spacing" textLength="8.252" x="989.9346" y="418.6289">}</text><text fill="#D9D3D0" font-family="Verdana" font-size="13" lengthAdjust="spacing" textLength="5.9033" x="986.5386" y="434.4282">]</text><polygon fill="#D9D3D0" points="531.6138,464.957,521.6138,468.957,531.6138,472.957,527.6138,468.957" style="stroke:#D9D3D0;stroke-width:1;"/><line style="stroke:#D9D3D0;stroke-width:1;stroke-dasharray:2.0,2.0;" x1="525.6138" x2="820.1367" y1="468.957" y2="468.957"/><text fill="#D9D3D0" font-family="Verdana" font-size="13" lengthAdjust="spacing" textLength="152.7754" x="594.4875" y="464.2275">JSON recomendaciones</text><polygon fill="#D9D3D0" points="804.1367,494.7563,814.1367,498.7563,804.1367,502.7563,808.1367,498.7563" style="stroke:#D9D3D0;stroke-width:1;"/><line style="stroke:#D9D3D0;stroke-width:1;" x1="520.6138" x2="810.1367" y1="498.7563" y2="498.7563"/><text fill="#D9D3D0" font-family="Verdana" font-size="13" lengthAdjust="spacing" textLength="173.6592" x="581.5457" y="494.0269">GET /containers/map-data</text><polygon fill="#D9D3D0" points="1135.8438,524.5557,1145.8438,528.5557,1135.8438,532.5557,1139.8438,528.5557" style="stroke:#D9D3D0;stroke-width:1;"/><line style="stroke:#D9D3D0;stroke-width:1;" x1="826.1367" x2="1141.8438" y1="528.5557" y2="528.5557"/><text fill="#D9D3D0" font-family="Verdana" font-size="13" lengthAdjust="spacing" textLength="302.707" x="835.6367" y="523.8262">SELECT ubicaciones y estado de contenedores</text><polygon fill="#D9D3D0" points="837.1367,554.355,827.1367,558.355,837.1367,562.355,833.1367,558.355" style="stroke:#D9D3D0;stroke-width:1;"/><line style="stroke:#D9D3D0;stroke-width:1;stroke-dasharray:2.0,2.0;" x1="831.1367" x2="1151.8438" y1="558.355" y2="558.355"/><text fill="#D9D3D0" font-family="Verdana" font-size="13" lengthAdjust="spacing" textLength="184.9326" x="897.0239" y="553.6255">Datos para mapa geogr&#225;fico</text><polygon fill="#D9D3D0" points="531.6138,584.1543,521.6138,588.1543,531.6138,592.1543,527.6138,588.1543" style="stroke:#D9D3D0;stroke-width:1;"/><line style="stroke:#D9D3D0;stroke-width:1;stroke-dasharray:2.0,2.0;" x1="525.6138" x2="820.1367" y1="588.1543" y2="588.1543"/><text fill="#D9D3D0" font-family="Verdana" font-size="13" lengthAdjust="spacing" textLength="136.3604" x="602.6951" y="583.4248">JSON datos de mapa</text><polygon fill="#D9D3D0" points="172.8296,692.9502,162.8296,696.9502,172.8296,700.9502,168.8296,696.9502" style="stroke:#D9D3D0;stroke-width:1;"/><line style="stroke:#D9D3D0;stroke-width:1;stroke-dasharray:2.0,2.0;" x1="166.8296" x2="509.6138" y1="696.9502" y2="696.9502"/><text fill="#D9D3D0" font-family="Verdana" font-size="13" lengthAdjust="spacing" textLength="131.0029" x="270.7202" y="613.2241">Muestra dashboard:</text><text fill="#D9D3D0" font-family="Verdana" font-size="13" lengthAdjust="spacing" textLength="179.4165" x="246.5134" y="629.0234">- Lista de recomendaciones</text><text fill="#D9D3D0" font-family="Verdana" font-size="13" lengthAdjust="spacing" textLength="191.3374" x="240.553" y="644.8228">- Mapa geogr&#225;fico interactivo</text><text fill="#D9D3D0" font-family="Verdana" font-size="13" lengthAdjust="spacing" textLength="241.0967" x="215.6733" y="660.6221">- Matching import-export visualizado</text><text fill="#D9D3D0" font-family="Verdana" font-size="13" lengthAdjust="spacing" textLength="209.8345" x="231.3044" y="676.4214">- Ahorro estimado (&#8364;, km, CO2)</text><text fill="#D9D3D0" font-family="Verdana" font-size="13" lengthAdjust="spacing" textLength="128.4639" x="271.9897" y="692.2207">- Confidence scores</text><rect fill="#003153" height="3" style="stroke:#003153;stroke-width:1;" width="1425.6421" x="5" y="725.8499"/><line style="stroke:#D9D3D0;stroke-width:0.5;" x1="5" x2="1430.6421" y1="725.8499" y2="725.8499"/><line style="stroke:#D9D3D0;stroke-width:0.5;" x1="5" x2="1430.6421" y1="728.8499" y2="728.8499"/><rect fill="#003153" height="23.7993" style="stroke:#D9D3D0;stroke-width:1;" width="184.6567" x="625.4927" y="714.9502"/><text fill="#D9D3D0" font-family="Verdana" font-size="13" font-weight="bold" lengthAdjust="spacing" textLength="166.2134" x="631.4927" y="732.02">Opciones del Operador</text><path d="M14,755.7495 L78.0493,755.7495 L78.0493,763.5488 L68.0493,773.5488 L14,773.5488 L14,755.7495 " fill="#003153" style="stroke:#D9D3D0;stroke-width:1;"/><rect fill="transparent" height="2083.271" style="stroke:#D9D3D0;stroke-width:1;" width="1406.6421" x="14" y="755.7495"/><text fill="#D9D3D0" font-family="Verdana" font-size="13" font-weight="bold" lengthAdjust="spacing" textLength="19.0493" x="29" y="769.8193">alt</text><text fill="#D9D3D0" font-family="Verdana" font-size="11" font-weight="bold" lengthAdjust="spacing" textLength="264.1235" x="93.0493" y="768.8086">[Operador solicita NUEVA OPTIMIZACI&#211;N]</text><path d="M48,778.5488 L48,851.5488 L273,851.5488 L273,788.5488 L263,778.5488 L48,778.5488 " fill="#003153" style="stroke:#D9D3D0;stroke-width:1;"/><path d="M263,778.5488 L263,788.5488 L273,788.5488 L263,778.5488 " fill="#003153" style="stroke:#D9D3D0;stroke-width:1;"/><text fill="#D9D3D0" font-family="Verdana" font-size="13" lengthAdjust="spacing" textLength="195.7236" x="54" y="796.6187">El operador decide que quiere</text><text fill="#D9D3D0" font-family="Verdana" font-size="13" lengthAdjust="spacing" textLength="204.1025" x="54" y="812.418">recalcular las recomendaciones</text><text fill="#D9D3D0" font-family="Verdana" font-size="13" lengthAdjust="spacing" textLength="204.9023" x="54" y="828.2173">(ej: datos actualizados, nuevas</text><text fill="#D9D3D0" font-family="Verdana" font-size="13" lengthAdjust="spacing" textLength="177.6328" x="54" y="844.0166">restricciones consideradas)</text><polygon fill="#D9D3D0" points="498.6138,874.5454,508.6138,878.5454,498.6138,882.5454,502.6138,878.5454" style="stroke:#D9D3D0;stroke-width:1;"/><line style="stroke:#D9D3D0;stroke-width:1;" x1="161.8296" x2="504.6138" y1="878.5454" y2="878.5454"/><text fill="#D9D3D0" font-family="Verdana" font-size="13" lengthAdjust="spacing" textLength="252.5986" x="209.9224" y="873.8159">Click en "Recalcular recomendaciones"</text><polygon fill="#D9D3D0" points="804.1367,920.144,814.1367,924.144,804.1367,928.144,808.1367,924.144" style="stroke:#D9D3D0;stroke-width:1;"/><line style="stroke:#D9D3D0;stroke-width:1;" x1="520.6138" x2="810.1367" y1="924.144" y2="924.144"/><text fill="#D9D3D0" font-family="Verdana" font-size="13" lengthAdjust="spacing" textLength="175.4111" x="580.6697" y="903.6152">POST /trigger-optimization</text><text fill="#D9D3D0" font-family="Verdana" font-size="13" lengthAdjust="spacing" textLength="276.5229" x="530.1138" y="919.4146">{"reason": "manual", "operator_id": "..."}</text><path d="M831,937.144 L831,994.144 L1016,994.144 L1016,947.144 L1006,937.144 L831,937.144 " fill="#003153" style="stroke:#D9D3D0;stroke-width:1;"/><path d="M1006,937.144 L1006,947.144 L1016,947.144 L1006,937.144 " fill="#003153" style="stroke:#D9D3D0;stroke-width:1;"/><text fill="#D9D3D0" font-family="Verdana" font-size="13" lengthAdjust="spacing" textLength="149.2778" x="837" y="955.2139">Se ejecuta completo el</text><rect fill="#D9D3D0" height="3.5" width="3.5" x="846" y="963.7427"/><text fill="#D9D3D0" font-family="Verdana" font-size="13" lengthAdjust="spacing" textLength="148.9604" x="853" y="971.0132">Flujo 2: Generaci&#243;n de</text><text fill="#D9D3D0" font-family="Verdana" font-size="13" lengthAdjust="spacing" textLength="133.4722" x="837" y="986.8125">Recomendaciones**</text><line style="stroke:#D9D3D0;stroke-width:1;" x1="826.1367" x2="868.1367" y1="1037.1406" y2="1037.1406"/><line style="stroke:#D9D3D0;stroke-width:1;" x1="868.1367" x2="868.1367" y1="1037.1406" y2="1050.1406"/><line style="stroke:#D9D3D0;stroke-width:1;" x1="827.1367" x2="868.1367" y1="1050.1406" y2="1050.1406"/><polygon fill="#D9D3D0" points="837.1367,1046.1406,827.1367,1050.1406,837.1367,1054.1406,833.1367,1050.1406" style="stroke:#D9D3D0;stroke-width:1;"/><text fill="#D9D3D0" font-family="Verdana" font-size="13" lengthAdjust="spacing" textLength="171.3613" x="833.1367" y="1016.6118">Trigger de motor Timefold</text><text fill="#D9D3D0" font-family="Verdana" font-size="13" lengthAdjust="spacing" textLength="81.8276" x="877.9036" y="1032.4111">(ver Flujo 2)</text><polygon fill="#D9D3D0" points="531.6138,1091.7393,521.6138,1095.7393,531.6138,1099.7393,527.6138,1095.7393" style="stroke:#D9D3D0;stroke-width:1;"/><line style="stroke:#D9D3D0;stroke-width:1;stroke-dasharray:2.0,2.0;" x1="525.6138" x2="820.1367" y1="1095.7393" y2="1095.7393"/><text fill="#D9D3D0" font-family="Verdana" font-size="13" lengthAdjust="spacing" textLength="138.3154" x="601.7175" y="1075.2104">Optimizaci&#243;n iniciada</text><text fill="#D9D3D0" font-family="Verdana" font-size="13" lengthAdjust="spacing" textLength="239.0146" x="551.3679" y="1091.0098">{"job_id": "...", "status": "running"}</text><polygon fill="#D9D3D0" points="172.8296,1137.3379,162.8296,1141.3379,172.8296,1145.3379,168.8296,1141.3379" style="stroke:#D9D3D0;stroke-width:1;"/><line style="stroke:#D9D3D0;stroke-width:1;stroke-dasharray:2.0,2.0;" x1="166.8296" x2="509.6138" y1="1141.3379" y2="1141.3379"/><text fill="#D9D3D0" font-family="Verdana" font-size="13" lengthAdjust="spacing" textLength="324.7842" x="173.8296" y="1120.8091">Mensaje: "Generando nuevas recomendaciones...</text><text fill="#D9D3D0" font-family="Verdana" font-size="13" lengthAdjust="spacing" textLength="222.3774" x="225.033" y="1136.6084">Recibir&#225; notificaci&#243;n al completar"</text><path d="M370,1154.3379 L370,1211.3379 L660,1211.3379 L660,1164.3379 L650,1154.3379 L370,1154.3379 " fill="#003153" style="stroke:#D9D3D0;stroke-width:1;"/><path d="M650,1154.3379 L650,1164.3379 L660,1164.3379 L650,1154.3379 " fill="#003153" style="stroke:#D9D3D0;stroke-width:1;"/><text fill="#D9D3D0" font-family="Verdana" font-size="13" lengthAdjust="spacing" textLength="211.7896" x="376" y="1172.4077">Cuando la optimizaci&#243;n termina,</text><text fill="#D9D3D0" font-family="Verdana" font-size="13" lengthAdjust="spacing" textLength="197.1074" x="376" y="1188.207">el operador recibe notificaci&#243;n</text><text fill="#D9D3D0" font-family="Verdana" font-size="13" lengthAdjust="spacing" textLength="269.5151" x="376" y="1204.0063">y puede ver las nuevas recomendaciones</text><line style="stroke:#D9D3D0;stroke-width:1;stroke-dasharray:2.0,2.0;" x1="14" x2="1420.6421" y1="1217.7358" y2="1217.7358"/><text fill="#D9D3D0" font-family="Verdana" font-size="11" font-weight="bold" lengthAdjust="spacing" textLength="298.7188" x="19" y="1228.7949">[Operador revisa RECOMENDACI&#211;N EXISTENTE]</text><line style="stroke:#D9D3D0;stroke-width:1;" x1="161.8296" x2="203.8296" y1="1317.1011" y2="1317.1011"/><line style="stroke:#D9D3D0;stroke-width:1;" x1="203.8296" x2="203.8296" y1="1317.1011" y2="1330.1011"/><line style="stroke:#D9D3D0;stroke-width:1;" x1="162.8296" x2="203.8296" y1="1330.1011" y2="1330.1011"/><polygon fill="#D9D3D0" points="172.8296,1326.1011,162.8296,1330.1011,172.8296,1334.1011,168.8296,1330.1011" style="stroke:#D9D3D0;stroke-width:1;"/><text fill="#D9D3D0" font-family="Verdana" font-size="13" lengthAdjust="spacing" textLength="156.1016" x="195.7056" y="1249.1743">Analiza recomendaci&#243;n:</text><text fill="#D9D3D0" font-family="Verdana" font-size="13" lengthAdjust="spacing" textLength="188.1001" x="179.7063" y="1264.9736">- Revisa matching propuesto</text><text fill="#D9D3D0" font-family="Verdana" font-size="13" lengthAdjust="spacing" textLength="182.5078" x="182.5024" y="1280.7729">- Valida viabilidad operativa</text><text fill="#D9D3D0" font-family="Verdana" font-size="13" lengthAdjust="spacing" textLength="209.8535" x="168.8296" y="1296.5723">- Considera restricciones del d&#237;a</text><text fill="#D9D3D0" font-family="Verdana" font-size="13" lengthAdjust="spacing" textLength="174.4907" x="186.511" y="1312.3716">- Eval&#250;a impacto estimado</text><path d="M24,1345.1011 L88.0493,1345.1011 L88.0493,1352.9004 L78.0493,1362.9004 L24,1362.9004 L24,1345.1011 " fill="#003153" style="stroke:#D9D3D0;stroke-width:1;"/><rect fill="transparent" height="1486.9194" style="stroke:#D9D3D0;stroke-width:1;" width="1386.6421" x="24" y="1345.1011"/><text fill="#D9D3D0" font-family="Verdana" font-size="13" font-weight="bold" lengthAdjust="spacing" textLength="19.0493" x="39" y="1359.1709">alt</text><text fill="#D9D3D0" font-family="Verdana" font-size="11" font-weight="bold" lengthAdjust="spacing" textLength="219.6992" x="103.0493" y="1358.1602">[Operador ACEPTA recomendaci&#243;n]</text><path d="M44,1367.9004 L44,1455.9004 L279,1455.9004 L279,1377.9004 L269,1367.9004 L44,1367.9004 " fill="#003153" style="stroke:#D9D3D0;stroke-width:1;"/><path d="M269,1367.9004 L269,1377.9004 L279,1377.9004 L269,1367.9004 " fill="#003153" style="stroke:#D9D3D0;stroke-width:1;"/><text fill="#D9D3D0" font-family="Verdana" font-size="13" lengthAdjust="spacing" textLength="152.6421" x="50" y="1385.9702">El operador valida que:</text><text fill="#D9D3D0" font-family="Verdana" font-size="13" lengthAdjust="spacing" textLength="179.5181" x="50" y="1401.7695">- Clientes est&#225;n disponibles</text><text fill="#D9D3D0" font-family="Verdana" font-size="13" lengthAdjust="spacing" textLength="214.1699" x="50" y="1417.5688">- No hay restricciones especiales</text><text fill="#D9D3D0" font-family="Verdana" font-size="13" lengthAdjust="spacing" textLength="149.5635" x="50" y="1433.3682">- Timing es compatible</text><text fill="#D9D3D0" font-family="Verdana" font-size="13" lengthAdjust="spacing" textLength="196.3267" x="50" y="1449.1675">- Naviera permite el matching</text><polygon fill="#D9D3D0" points="498.6138,1495.4956,508.6138,1499.4956,498.6138,1503.4956,502.6138,1499.4956" style="stroke:#D9D3D0;stroke-width:1;"/><line style="stroke:#D9D3D0;stroke-width:1;" x1="161.8296" x2="504.6138" y1="1499.4956" y2="1499.4956"/><text fill="#D9D3D0" font-family="Verdana" font-size="13" lengthAdjust="spacing" textLength="221.2095" x="225.6169" y="1478.9668">Click en "Aceptar recomendaci&#243;n"</text><text fill="#D9D3D0" font-family="Verdana" font-size="13" lengthAdjust="spacing" textLength="170.4092" x="251.0171" y="1494.7661">+ Comentarios opcionales</text><polygon fill="#D9D3D0" points="804.1367,1620.0908,814.1367,1624.0908,804.1367,1628.0908,808.1367,1624.0908" style="stroke:#D9D3D0;stroke-width:1;"/><line style="stroke:#D9D3D0;stroke-width:1;" x1="520.6138" x2="810.1367" y1="1624.0908" y2="1624.0908"/><text fill="#D9D3D0" font-family="Verdana" font-size="13" lengthAdjust="spacing" textLength="186.6147" x="575.0679" y="1524.5654">PUT /recommendations/{id}</text><text fill="#D9D3D0" font-family="Verdana" font-size="13" lengthAdjust="spacing" textLength="8.252" x="664.2493" y="1540.3647">{</text><text fill="#D9D3D0" font-family="Verdana" font-size="13" lengthAdjust="spacing" textLength="136.3096" x="604.7908" y="1556.1641">status: "ACCEPTED",</text><text fill="#D9D3D0" font-family="Verdana" font-size="13" lengthAdjust="spacing" textLength="116.9048" x="614.4932" y="1571.9634">operator_id: "...",</text><text fill="#D9D3D0" font-family="Verdana" font-size="13" lengthAdjust="spacing" textLength="109.1416" x="618.3748" y="1587.7627">comments: "...",</text><text fill="#D9D3D0" font-family="Verdana" font-size="13" lengthAdjust="spacing" textLength="106.1201" x="619.8855" y="1603.562">timestamp: "..."</text><text fill="#D9D3D0" font-family="Verdana" font-size="13" lengthAdjust="spacing" textLength="8.252" x="664.2493" y="1619.3613">}</text><polygon fill="#D9D3D0" points="1135.8438,1697.2881,1145.8438,1701.2881,1135.8438,1705.2881,1139.8438,1701.2881" style="stroke:#D9D3D0;stroke-width:1;"/><line style="stroke:#D9D3D0;stroke-width:1;" x1="826.1367" x2="1141.8438" y1="1701.2881" y2="1701.2881"/><text fill="#D9D3D0" font-family="Verdana" font-size="13" lengthAdjust="spacing" textLength="166.9878" x="903.4963" y="1649.1606">UPDATE recommendation</text><text fill="#D9D3D0" font-family="Verdana" font-size="13" lengthAdjust="spacing" textLength="170.3521" x="901.8142" y="1664.96">SET status = 'ACCEPTED',</text><text fill="#D9D3D0" font-family="Verdana" font-size="13" lengthAdjust="spacing" textLength="182.311" x="904.9753" y="1680.7593">accepted_by = operator_id,</text><text fill="#D9D3D0" font-family="Verdana" font-size="13" lengthAdjust="spacing" textLength="143.7554" x="924.2532" y="1696.5586">accepted_at = NOW()</text><polygon fill="#D9D3D0" points="837.1367,1727.0874,827.1367,1731.0874,837.1367,1735.0874,833.1367,1731.0874" style="stroke:#D9D3D0;stroke-width:1;"/><line style="stroke:#D9D3D0;stroke-width:1;stroke-dasharray:2.0,2.0;" x1="831.1367" x2="1151.8438" y1="1731.0874" y2="1731.0874"/><text fill="#D9D3D0" font-family="Verdana" font-size="13" lengthAdjust="spacing" textLength="180.4131" x="899.2837" y="1726.3579">Recomendaci&#243;n actualizada</text><polygon fill="#D9D3D0" points="1135.8438,1772.686,1145.8438,1776.686,1135.8438,1780.686,1139.8438,1776.686" style="stroke:#D9D3D0;stroke-width:1;"/><line style="stroke:#D9D3D0;stroke-width:1;" x1="826.1367" x2="1141.8438" y1="1776.686" y2="1776.686"/><text fill="#D9D3D0" font-family="Verdana" font-size="13" lengthAdjust="spacing" textLength="210.0503" x="881.9651" y="1756.1572">INSERT en historial de feedback</text><text fill="#D9D3D0" font-family="Verdana" font-size="13" lengthAdjust="spacing" textLength="184.958" x="894.5112" y="1771.9565">(para m&#233;tricas de adopci&#243;n)</text><polygon fill="#D9D3D0" points="837.1367,1802.4854,827.1367,1806.4854,837.1367,1810.4854,833.1367,1806.4854" style="stroke:#D9D3D0;stroke-width:1;"/><line style="stroke:#D9D3D0;stroke-width:1;stroke-dasharray:2.0,2.0;" x1="831.1367" x2="1151.8438" y1="1806.4854" y2="1806.4854"/><text fill="#D9D3D0" font-family="Verdana" font-size="13" lengthAdjust="spacing" textLength="132.2026" x="923.3889" y="1801.7559">Feedback registrado</text><polygon fill="#D9D3D0" points="531.6138,1832.2847,521.6138,1836.2847,531.6138,1840.2847,527.6138,1836.2847" style="stroke:#D9D3D0;stroke-width:1;"/><line style="stroke:#D9D3D0;stroke-width:1;stroke-dasharray:2.0,2.0;" x1="525.6138" x2="820.1367" y1="1836.2847" y2="1836.2847"/><text fill="#D9D3D0" font-family="Verdana" font-size="13" lengthAdjust="spacing" textLength="136.957" x="602.3967" y="1831.5552">Confirmaci&#243;n exitosa</text><polygon fill="#D9D3D0" points="172.8296,1925.2813,162.8296,1929.2813,172.8296,1933.2813,168.8296,1929.2813" style="stroke:#D9D3D0;stroke-width:1;"/><line style="stroke:#D9D3D0;stroke-width:1;stroke-dasharray:2.0,2.0;" x1="166.8296" x2="509.6138" y1="1929.2813" y2="1929.2813"/><text fill="#D9D3D0" font-family="Verdana" font-size="13" lengthAdjust="spacing" textLength="180.7622" x="245.8406" y="1861.3545">&#10003; Recomendaci&#243;n aceptada</text><text fill="#D9D3D0" font-family="Verdana" font-size="13" lengthAdjust="spacing" textLength="4.5703" x="333.9365" y="1877.1538">&#160;</text><text fill="#D9D3D0" font-family="Verdana" font-size="13" lengthAdjust="spacing" textLength="94.1167" x="289.1633" y="1892.9531">Pr&#243;ximo paso:</text><text fill="#D9D3D0" font-family="Verdana" font-size="13" lengthAdjust="spacing" textLength="197.9771" x="237.2332" y="1908.7524">Genere la orden de transporte</text><text fill="#D9D3D0" font-family="Verdana" font-size="13" lengthAdjust="spacing" textLength="166.8418" x="252.8008" y="1924.5518">en su sistema TMS actual</text><path d="M166,1942.2813 L166,2046.2813 L384,2046.2813 L384,1952.2813 L374,1942.2813 L166,1942.2813 " fill="#003153" style="stroke:#D9D3D0;stroke-width:1;"/><path d="M374,1942.2813 L374,1952.2813 L384,1952.2813 L374,1942.2813 " fill="#003153" style="stroke:#D9D3D0;stroke-width:1;"/><text fill="#D9D3D0" font-family="Verdana" font-size="13" lengthAdjust="spacing" textLength="181.8223" x="172" y="1960.3511">El operador procede a crear</text><text fill="#D9D3D0" font-family="Verdana" font-size="13" lengthAdjust="spacing" textLength="197.9136" x="172" y="1976.1504">la orden de transporte usando</text><text fill="#D9D3D0" font-family="Verdana" font-size="13" lengthAdjust="spacing" textLength="171.4946" x="172" y="1991.9497">sus herramientas actuales</text><text fill="#D9D3D0" font-family="Verdana" font-size="13" lengthAdjust="spacing" textLength="4.5703" x="172" y="2007.749">&#160;</text><text fill="#D9D3D0" font-family="Verdana" font-size="13" lengthAdjust="spacing" textLength="174.9033" x="172" y="2023.5483">El MVP NO genera &#243;rdenes</text><text fill="#D9D3D0" font-family="Verdana" font-size="13" lengthAdjust="spacing" textLength="114.2515" x="172" y="2039.3477">autom&#225;ticamente</text><line style="stroke:#D9D3D0;stroke-width:1;stroke-dasharray:2.0,2.0;" x1="24" x2="1410.6421" y1="2053.0771" y2="2053.0771"/><text fill="#D9D3D0" font-family="Verdana" font-size="11" font-weight="bold" lengthAdjust="spacing" textLength="229.5659" x="29" y="2064.1362">[Operador RECHAZA recomendaci&#243;n]</text><path d="M34,2072.4458 L34,2176.4458 L288,2176.4458 L288,2082.4458 L278,2072.4458 L34,2072.4458 " fill="#003153" style="stroke:#D9D3D0;stroke-width:1;"/><path d="M278,2072.4458 L278,2082.4458 L288,2082.4458 L278,2072.4458 " fill="#003153" style="stroke:#D9D3D0;stroke-width:1;"/><text fill="#D9D3D0" font-family="Verdana" font-size="13" lengthAdjust="spacing" textLength="188.6841" x="40" y="2090.5156">Motivos posibles de rechazo:</text><text fill="#D9D3D0" font-family="Verdana" font-size="13" lengthAdjust="spacing" textLength="233.543" x="40" y="2106.3149">- Cliente no disponible en esa fecha</text><text fill="#D9D3D0" font-family="Verdana" font-size="13" lengthAdjust="spacing" textLength="154.8765" x="40" y="2122.1143">- Restricci&#243;n de naviera</text><text fill="#D9D3D0" font-family="Verdana" font-size="13" lengthAdjust="spacing" textLength="151.1631" x="40" y="2137.9136">- Timing no compatible</text><text fill="#D9D3D0" font-family="Verdana" font-size="13" lengthAdjust="spacing" textLength="154.8828" x="40" y="2153.7129">- Preferencia del cliente</text><text fill="#D9D3D0" font-family="Verdana" font-size="13" lengthAdjust="spacing" textLength="154.5781" x="40" y="2169.5122">- Otro motivo operativo</text><polygon fill="#D9D3D0" points="498.6138,2215.8403,508.6138,2219.8403,498.6138,2223.8403,502.6138,2219.8403" style="stroke:#D9D3D0;stroke-width:1;"/><line style="stroke:#D9D3D0;stroke-width:1;" x1="161.8296" x2="504.6138" y1="2219.8403" y2="2219.8403"/><text fill="#D9D3D0" font-family="Verdana" font-size="13" lengthAdjust="spacing" textLength="127.499" x="272.4722" y="2199.3115">Click en "Rechazar"</text><text fill="#D9D3D0" font-family="Verdana" font-size="13" lengthAdjust="spacing" textLength="197.7295" x="237.3569" y="2215.1108">Selecciona motivo del rechazo</text><polygon fill="#D9D3D0" points="172.8296,2277.2383,162.8296,2281.2383,172.8296,2285.2383,168.8296,2281.2383" style="stroke:#D9D3D0;stroke-width:1;"/><line style="stroke:#D9D3D0;stroke-width:1;stroke-dasharray:2.0,2.0;" x1="166.8296" x2="509.6138" y1="2281.2383" y2="2281.2383"/><text fill="#D9D3D0" font-family="Verdana" font-size="13" lengthAdjust="spacing" textLength="151.8677" x="260.2878" y="2244.9102">Formulario de rechazo:</text><text fill="#D9D3D0" font-family="Verdana" font-size="13" lengthAdjust="spacing" textLength="260.9014" x="205.771" y="2260.7095">- Motivo (lista predefinida + texto libre)</text><text fill="#D9D3D0" font-family="Verdana" font-size="13" lengthAdjust="spacing" textLength="169.1587" x="251.6423" y="2276.5088">- Comentarios adicionales</text><polygon fill="#D9D3D0" points="498.6138,2307.0376,508.6138,2311.0376,498.6138,2315.0376,502.6138,2311.0376" style="stroke:#D9D3D0;stroke-width:1;"/><line style="stroke:#D9D3D0;stroke-width:1;" x1="161.8296" x2="504.6138" y1="2311.0376" y2="2311.0376"/><text fill="#D9D3D0" font-family="Verdana" font-size="13" lengthAdjust="spacing" textLength="160.6973" x="255.873" y="2306.3081">Env&#237;a motivo de rechazo</text><polygon fill="#D9D3D0" points="804.1367,2447.4321,814.1367,2451.4321,804.1367,2455.4321,808.1367,2451.4321" style="stroke:#D9D3D0;stroke-width:1;"/><line style="stroke:#D9D3D0;stroke-width:1;" x1="520.6138" x2="810.1367" y1="2451.4321" y2="2451.4321"/><text fill="#D9D3D0" font-family="Verdana" font-size="13" lengthAdjust="spacing" textLength="186.6147" x="575.0679" y="2336.1074">PUT /recommendations/{id}</text><text fill="#D9D3D0" font-family="Verdana" font-size="13" lengthAdjust="spacing" textLength="8.252" x="664.2493" y="2351.9067">{</text><text fill="#D9D3D0" font-family="Verdana" font-size="13" lengthAdjust="spacing" textLength="133.6753" x="606.1079" y="2367.7061">status: "REJECTED",</text><text fill="#D9D3D0" font-family="Verdana" font-size="13" lengthAdjust="spacing" textLength="116.9048" x="614.4932" y="2383.5054">operator_id: "...",</text><text fill="#D9D3D0" font-family="Verdana" font-size="13" lengthAdjust="spacing" textLength="150.668" x="597.6116" y="2399.3047">rejection_reason: "...",</text><text fill="#D9D3D0" font-family="Verdana" font-size="13" lengthAdjust="spacing" textLength="174.4971" x="585.697" y="2415.104">rejection_comments: "...",</text><text fill="#D9D3D0" font-family="Verdana" font-size="13" lengthAdjust="spacing" textLength="106.1201" x="619.8855" y="2430.9033">timestamp: "..."</text><text fill="#D9D3D0" font-family="Verdana" font-size="13" lengthAdjust="spacing" textLength="8.252" x="664.2493" y="2446.7026">}</text><polygon fill="#D9D3D0" points="1135.8438,2540.4287,1145.8438,2544.4287,1135.8438,2548.4287,1139.8438,2544.4287" style="stroke:#D9D3D0;stroke-width:1;"/><line style="stroke:#D9D3D0;stroke-width:1;" x1="826.1367" x2="1141.8438" y1="2544.4287" y2="2544.4287"/><text fill="#D9D3D0" font-family="Verdana" font-size="13" lengthAdjust="spacing" textLength="166.9878" x="903.4963" y="2476.502">UPDATE recommendation</text><text fill="#D9D3D0" font-family="Verdana" font-size="13" lengthAdjust="spacing" textLength="167.7178" x="903.1313" y="2492.3013">SET status = 'REJECTED',</text><text fill="#D9D3D0" font-family="Verdana" font-size="13" lengthAdjust="spacing" textLength="177.3979" x="907.4319" y="2508.1006">rejected_by = operator_id,</text><text fill="#D9D3D0" font-family="Verdana" font-size="13" lengthAdjust="spacing" textLength="155.0225" x="918.6196" y="2523.8999">rejection_reason = '...',</text><text fill="#D9D3D0" font-family="Verdana" font-size="13" lengthAdjust="spacing" textLength="138.8423" x="926.7097" y="2539.6992">rejected_at = NOW()</text><polygon fill="#D9D3D0" points="837.1367,2570.228,827.1367,2574.228,837.1367,2578.228,833.1367,2574.228" style="stroke:#D9D3D0;stroke-width:1;"/><line style="stroke:#D9D3D0;stroke-width:1;stroke-dasharray:2.0,2.0;" x1="831.1367" x2="1151.8438" y1="2574.228" y2="2574.228"/><text fill="#D9D3D0" font-family="Verdana" font-size="13" lengthAdjust="spacing" textLength="180.4131" x="899.2837" y="2569.4985">Recomendaci&#243;n actualizada</text><polygon fill="#D9D3D0" points="1135.8438,2615.8267,1145.8438,2619.8267,1135.8438,2623.8267,1139.8438,2619.8267" style="stroke:#D9D3D0;stroke-width:1;"/><line style="stroke:#D9D3D0;stroke-width:1;" x1="826.1367" x2="1141.8438" y1="2619.8267" y2="2619.8267"/><text fill="#D9D3D0" font-family="Verdana" font-size="13" lengthAdjust="spacing" textLength="210.0503" x="881.9651" y="2599.2979">INSERT en historial de feedback</text><text fill="#D9D3D0" font-family="Verdana" font-size="13" lengthAdjust="spacing" textLength="224.9229" x="874.5288" y="2615.0972">(captura motivo para aprendizaje)</text><path d="M1162,2632.8267 L1162,2720.8267 L1400,2720.8267 L1400,2642.8267 L1390,2632.8267 L1162,2632.8267 " fill="#003153" style="stroke:#D9D3D0;stroke-width:1;"/><path d="M1390,2632.8267 L1390,2642.8267 L1400,2642.8267 L1390,2632.8267 " fill="#003153" style="stroke:#D9D3D0;stroke-width:1;"/><text fill="#D9D3D0" font-family="Verdana" font-size="13" lengthAdjust="spacing" textLength="174.4463" x="1168" y="2650.8965">El feedback se usar&#225; para:</text><text fill="#D9D3D0" font-family="Verdana" font-size="13" lengthAdjust="spacing" textLength="148.1035" x="1168" y="2666.6958">- M&#233;tricas de adopci&#243;n</text><text fill="#D9D3D0" font-family="Verdana" font-size="13" lengthAdjust="spacing" textLength="217.6421" x="1168" y="2682.4951">- An&#225;lisis de patrones de rechazo</text><text fill="#D9D3D0" font-family="Verdana" font-size="13" lengthAdjust="spacing" textLength="145.5835" x="1168" y="2698.2944">- Mejora del algoritmo</text><text fill="#D9D3D0" font-family="Verdana" font-size="13" lengthAdjust="spacing" textLength="151.6709" x="1168" y="2714.0938">- Ajuste de par&#225;metros</text><polygon fill="#D9D3D0" points="837.1367,2744.6226,827.1367,2748.6226,837.1367,2752.6226,833.1367,2748.6226" style="stroke:#D9D3D0;stroke-width:1;"/><line style="stroke:#D9D3D0;stroke-width:1;stroke-dasharray:2.0,2.0;" x1="831.1367" x2="1151.8438" y1="2748.6226" y2="2748.6226"/><text fill="#D9D3D0" font-family="Verdana" font-size="13" lengthAdjust="spacing" textLength="132.2026" x="923.3889" y="2743.8931">Feedback registrado</text><polygon fill="#D9D3D0" points="531.6138,2774.4219,521.6138,2778.4219,531.6138,2782.4219,527.6138,2778.4219" style="stroke:#D9D3D0;stroke-width:1;"/><line style="stroke:#D9D3D0;stroke-width:1;stroke-dasharray:2.0,2.0;" x1="525.6138" x2="820.1367" y1="2778.4219" y2="2778.4219"/><text fill="#D9D3D0" font-family="Verdana" font-size="13" lengthAdjust="spacing" textLength="136.957" x="602.3967" y="2773.6924">Confirmaci&#243;n exitosa</text><polygon fill="#D9D3D0" points="172.8296,2820.0205,162.8296,2824.0205,172.8296,2828.0205,168.8296,2824.0205" style="stroke:#D9D3D0;stroke-width:1;"/><line style="stroke:#D9D3D0;stroke-width:1;stroke-dasharray:2.0,2.0;" x1="166.8296" x2="509.6138" y1="2824.0205" y2="2824.0205"/><text fill="#D9D3D0" font-family="Verdana" font-size="13" lengthAdjust="spacing" textLength="188.1445" x="242.1494" y="2803.4917">&#10003; Recomendaci&#243;n rechazada</text><text fill="#D9D3D0" font-family="Verdana" font-size="13" lengthAdjust="spacing" textLength="200.3828" x="236.0303" y="2819.291">Motivo registrado para an&#225;lisis</text><path d="M124,2851.0205 L124,2892.0205 L1189,2892.0205 L1189,2861.0205 L1179,2851.0205 L124,2851.0205 " fill="#003153" style="stroke:#D9D3D0;stroke-width:1;"/><path d="M1179,2851.0205 L1179,2861.0205 L1189,2861.0205 L1179,2851.0205 " fill="#003153" style="stroke:#D9D3D0;stroke-width:1;"/><text fill="#D9D3D0" font-family="Verdana" font-size="13" lengthAdjust="spacing" textLength="376.3843" x="458.5474" y="2869.0903">El sistema captura todas las decisiones de los operadores</text><text fill="#D9D3D0" font-family="Verdana" font-size="13" lengthAdjust="spacing" textLength="387.334" x="458.5474" y="2884.8896">para medir adopci&#243;n y mejorar continuamente el algoritmo</text><!--SRC=[rLZDSXl74RxZAJguc991gSgviOf9GI3aq2KG2039AGSfrc1t00orExEUsQKbgtJnA_ZgYuwfIawwvOetyPFawvdTnUuI51LVagYA537Jq_FrtzSz-5s-awcaTLB8p2gTzznhfJDXHKfMkine9oVIER6LpsHYVXXQQtwWt1Qo8UZazuNKKIKuJDHMKoHrBcslbwiyaVGyAMuC_VwCffcq8bBxZvfY6Jx51ZVHV2TruNez4UN6Kh_QMUcmqIVXWZYsUxWtLv7AXCwf_wrSh_Gmon8LYLmPxKMnYAMsu71skTBF2ntLKbZfnI8NQ-4azMV6vLih5tz-uJSldlLwv-VqIhb29Eh76dL25yBjraROcCxFUxqA5Pt-eRpsZ8PH966VI2YkPDaoTIjoMM7hXV_v672SqTVZ9JsrCZ9fAdNiJN5_TBd82tS-6rzTN5vzVT31oF73Xo-UdT5Y_68yMf8_pOSZ78PJC_ojE11kfIF3u7EH9DY0M9R8t3YEmlwZZIN43zfX-iKpEgsGlL20mP8T_MSh_TUL9dh7luXKF22LPiRcrmOQxO3acyQd86IBN5ndrcI5XD81YPr1JbtZWqeHy58AO3SgvgIwTX7oOq1FdZpXhVSh_RTUB9j8lHiQllzcCRtg8cqUOTSTzJqkpONIqhgdgSXEEJ4USdYnHjALpdvBR55is56i2YxrgNslMoy41u1hY72VeAqqMxl_i56H-HmJOr76Zm_VQo1ELGbwHXDsEgwhan8HFBqtlBmtwG0ZnMNjhp9XFuzsIc_Bm9-6YDDjLJInbnhw85CLP3hvzQT_3EXrEg3HzAj7B36g0qu-uCxNtZGhVSjLLr62BpgHv8S5Pr3x2ZPSlHo_6j9qjhoSN7ut75tkVxxgzJYVj85VpAsq1muX_s-SaAdKn38210APuKT9AqiPk4KaKP48ImbuePjQGUX4tfoL8O5tAkFTW7GXRuMhLS7_AYgjGfOut8ZRXNla9Q3MOmseZp7B2AQ-XXprvmTO7KXzVxgJuhFf0ZcEsxTRQKzDXb008hFCIh_hMoaSIF6C-gdGGDyVKD-Krr-hc3TGWVttNdCxqsh_GlKk9xFnoy7UXIHv8oFKV4qv99Doy_7Zq1Q-GlsXM0vzeToVjwrw_FY8YygIz1OkWss-90oxRQbIkJ59lD8d7FhojaUDamt7JakF111A8wCG5_RDZLatN03715Bc1LjeZUml_TAjmMOKsdKejHCt4Wg2uHer4VAa6qfFUt24MYjK81kkDfvo62JQI-bLOVlTH2-xJ73bgF1t989CoqpKSggq69HYib4DbY-LxHjBiRS4zeQN-HgkYEFGEz6IYJiqVCY28WJDnwFf1Bqjr2gD_tAvM8wlbkEx-Nzmtb3xucfU1sYUoUP1QrgHKjLdF0czmh5OW9h4Ml5VSR2L0rOoK2Z6Jf4ozSJxVtgPyQr8zlyIJ7OyfzI45k2sE6au6i-Mmmx8Nkd0Jn1IbvHk0sgGqbb3ufHvm3Tsnh3_WAfHFAsfTL8pKf2xChGJRpisOR93T4LN5lN2NYld0tW6sjhAnArY3sMSDZ00hgbyNSkrw_DX6Xj6CilR70PFzLVwIuG42zXJ85NZMq4BSfVWNjwTdvw-Kp561Z-WXAf5pGr779lnHTyF6msMgogSbuEQt3NN46nkyMbMBgxq-nfCg_AhnSR0y79sCLoEgOrlfHSOF08mEgSlAcHVb6EGYDWvChvUlyLs0sbtN-JOlvf-U_BeBY3C3zLQS_gOj_pTQ5gY5cyF8SUikhnQZETBZkCEGuInYYTUIHifuxM8NeDumtYp_pjdd_3Z2j8wytT-FjRdfJwuRwjuWa79VGx8PiBnW67JqbhvHg5J7xMqPkvxsVlNNtw-wprEOcuNApsp-uzlL6emsJa3Ml8KBpttyfpDBe05sl6W95SQAwuW1xDaAcWvMPIXw715tLmVu0jGNdXwK8IUtfGw3e0AnwsX8UUGYpjfyR9ZXX7LFCCZMUlAoQiPKWx38NUmmoFY82EAtAJx3tY02IubUGz5j1i3EiAVXj_zHkAS69vBCLCRvvcm76ftuaTpb3sXhK6SdCOIxMF39rhYyuezotUh3ZnuZ3oXyHxod5cvGI9e4AzlAb70q9APvXYJKsz5tPtCRwRMkJSTim5uHYRIix-er3E4qZSFvFjpOrCUCvLf-jDF_q7LIU9V49b5ucqmEQ5VVOdHuWqwPABMLfOJ_e7CHQngDl-aBMDzYzPxW7m_ul-q2Sp7t-01zq0Ji3oyiexhC1yVt_klj8eAVzKg0fpxMqNN5DO1O7UE_-zsaaXaUM7hPF2DHI3dT8oxRkIdyROvjB7XgQowXPpdGvwqMNsRCoP7crXBPAZt7r0Boek00smvGTPfsz8dRumDL22IBIpEqxR0yAP0KmYg02cLqEVkai7_PSCC3l4TioIH0z8oj9KlUzL30cy8_jMuklecxMvJ68GO8xPLPwtI9pTuRVjd2x_tNJNaK-A7pEhxI9mDaukCbJr46q-Vr8VD-gzu59xAlhLHAuXrQFuD]--></g></svg>