<svg xmlns="http://www.w3.org/2000/svg" xmlns:xlink="http://www.w3.org/1999/xlink" contentStyleType="text/css" data-diagram-type="SEQUENCE" height="1876px" preserveAspectRatio="none" style="width:1251px;height:1876px;background:#003153;" version="1.1" viewBox="0 0 1251 1876" width="1251px" zoomAndPan="magnify"><title>Flujo 1: Ingesta de PDFs y Extracci&#243;n de Datos</title><defs/><g><rect fill="#003153" height="1876" style="stroke:transparent;stroke-width:1;" width="1251" x="0" y="0"/><text fill="#D9D3D0" font-family="Verdana" font-size="22" font-weight="bold" lengthAdjust="spacing" textLength="578.3271" x="335.1101" y="37.1182">Flujo 1: Ingesta de PDFs y Extracci&#243;n de Datos</text><g><title>Cloud</title><rect fill="#003153" height="59.7993" style="stroke:#D9D3D0;stroke-width:1;" width="10" x="225.1855" y="254.9639"/></g><g><title>Ingestion</title><rect fill="#003153" height="1430.7324" style="stroke:#D9D3D0;stroke-width:1;" width="10" x="349.7939" y="284.7632"/></g><g><title>Cloud</title><rect fill="#003153" height="29.7993" style="stroke:#D9D3D0;stroke-width:1;" width="10" x="595.2979" y="404.1611"/></g><g><title>Gemini</title><rect fill="#003153" height="171.5952" style="stroke:#D9D3D0;stroke-width:1;" width="10" x="706.3755" y="523.3584"/></g><g><title>PostgreSQL</title><rect fill="#003153" height="243.9932" style="stroke:#D9D3D0;stroke-width:1;" width="10" x="916.999" y="915.1475"/></g><g><title>PostgreSQL</title><rect fill="#003153" height="29.7993" style="stroke:#D9D3D0;stroke-width:1;" width="10" x="916.999" y="1500.9004"/></g><g><title>API</title><rect fill="#003153" height="97.1973" style="stroke:#D9D3D0;stroke-width:1;" width="10" x="1017.4707" y="1248.3379"/></g><g><title>API</title><rect fill="#003153" height="29.7993" style="stroke:#D9D3D0;stroke-width:1;" width="10" x="1017.4707" y="1560.499"/></g><rect fill="#003153" height="848.7461" style="stroke:#D9D3D0;stroke-width:1;" width="1016.5474" x="218" y="859.7495"/><rect fill="#003153" height="192.1938" style="stroke:#D9D3D0;stroke-width:1;" width="821.9434" x="294.8823" y="959.9468"/><rect fill="#003153" height="312.1611" style="stroke:transparent;stroke-width:1;" width="1016.5474" x="218" y="1396.3345"/><g><title>Email Inbox</title><rect fill="transparent" height="1629.3276" width="8" x="50.8701" y="147.7666"/><line style="stroke:#D9D3D0;stroke-width:1;" x1="54" x2="54" y1="147.7666" y2="1777.0942"/></g><g><title>Cloud</title><rect fill="transparent" height="1629.3276" width="8" x="226.1855" y="147.7666"/><line style="stroke:#D9D3D0;stroke-width:1;" x1="229.4185" x2="229.4185" y1="147.7666" y2="1777.0942"/></g><g><title>Ingestion</title><rect fill="transparent" height="1629.3276" width="8" x="350.7939" y="147.7666"/><line style="stroke:#D9D3D0;stroke-width:1;" x1="353.8823" x2="353.8823" y1="147.7666" y2="1777.0942"/></g><g><title>Cloud</title><rect fill="transparent" height="1629.3276" width="8" x="596.2979" y="147.7666"/><line style="stroke:#D9D3D0;stroke-width:1;" x1="599.7832" x2="599.7832" y1="147.7666" y2="1777.0942"/></g><g><title>Gemini</title><rect fill="transparent" height="1629.3276" width="8" x="707.3755" y="147.7666"/><line style="stroke:#D9D3D0;stroke-width:1;" x1="710.8125" x2="710.8125" y1="147.7666" y2="1777.0942"/></g><g><title>PostgreSQL</title><rect fill="transparent" height="1629.3276" width="8" x="917.999" y="147.7666"/><line style="stroke:#D9D3D0;stroke-width:1;" x1="921.4141" x2="921.4141" y1="147.7666" y2="1777.0942"/></g><g><title>API</title><rect fill="transparent" height="1629.3276" width="8" x="1018.4707" y="147.7666"/><line style="stroke:#D9D3D0;stroke-width:1;" x1="1021.584" x2="1021.584" y1="147.7666" y2="1777.0942"/></g><text fill="#D9D3D0" font-family="Verdana" font-size="14" lengthAdjust="spacing" textLength="83.7402" x="10" y="127.8125">Email Inbox</text><text fill="#D9D3D0" font-family="Verdana" font-size="14" lengthAdjust="spacing" textLength="51.9463" x="25.897" y="144.8271">Rhenus</text><ellipse cx="54.8701" cy="61.7373" fill="#003153" rx="8" ry="8" style="stroke:#D9D3D0;stroke-width:1;"/><path d="M54.8701,69.7373 L54.8701,96.7373 M41.8701,77.7373 L67.8701,77.7373 M54.8701,96.7373 L41.8701,111.7373 M54.8701,96.7373 L67.8701,111.7373 " fill="transparent" style="stroke:#D9D3D0;stroke-width:1;"/><text fill="#D9D3D0" font-family="Verdana" font-size="14" lengthAdjust="spacing" textLength="83.7402" x="10" y="1790.1694">Email Inbox</text><text fill="#D9D3D0" font-family="Verdana" font-size="14" lengthAdjust="spacing" textLength="51.9463" x="25.897" y="1807.1841">Rhenus</text><ellipse cx="54.8701" cy="1819.1235" fill="#003153" rx="8" ry="8" style="stroke:#D9D3D0;stroke-width:1;"/><path d="M54.8701,1827.1235 L54.8701,1854.1235 M41.8701,1835.1235 L67.8701,1835.1235 M54.8701,1854.1235 L41.8701,1869.1235 M54.8701,1854.1235 L67.8701,1869.1235 " fill="transparent" style="stroke:#D9D3D0;stroke-width:1;"/><rect fill="#003153" height="48.0293" rx="2.5" ry="2.5" style="stroke:#D9D3D0;stroke-width:1;" width="73.5342" x="193.4185" y="98.7373"/><text fill="#D9D3D0" font-family="Verdana" font-size="14" lengthAdjust="spacing" textLength="39.6963" x="210.3374" y="119.8125">Cloud</text><text fill="#D9D3D0" font-family="Verdana" font-size="14" lengthAdjust="spacing" textLength="59.5342" x="200.4185" y="136.8271">Pub/Sub</text><rect fill="#003153" height="48.0293" rx="2.5" ry="2.5" style="stroke:#D9D3D0;stroke-width:1;" width="73.5342" x="193.4185" y="1776.0942"/><text fill="#D9D3D0" font-family="Verdana" font-size="14" lengthAdjust="spacing" textLength="39.6963" x="210.3374" y="1797.1694">Cloud</text><text fill="#D9D3D0" font-family="Verdana" font-size="14" lengthAdjust="spacing" textLength="59.5342" x="200.4185" y="1814.1841">Pub/Sub</text><rect fill="#003153" height="48.0293" rx="2.5" ry="2.5" style="stroke:#D9D3D0;stroke-width:1;" width="79.8232" x="314.8823" y="98.7373"/><text fill="#D9D3D0" font-family="Verdana" font-size="14" lengthAdjust="spacing" textLength="65.8232" x="321.8823" y="119.8125">Ingestion</text><text fill="#D9D3D0" font-family="Verdana" font-size="14" lengthAdjust="spacing" textLength="59.7734" x="324.9072" y="136.8271">Function</text><rect fill="#003153" height="48.0293" rx="2.5" ry="2.5" style="stroke:#D9D3D0;stroke-width:1;" width="79.8232" x="314.8823" y="1776.0942"/><text fill="#D9D3D0" font-family="Verdana" font-size="14" lengthAdjust="spacing" textLength="65.8232" x="321.8823" y="1797.1694">Ingestion</text><text fill="#D9D3D0" font-family="Verdana" font-size="14" lengthAdjust="spacing" textLength="59.7734" x="324.9072" y="1814.1841">Function</text><rect fill="#003153" height="48.0293" rx="2.5" ry="2.5" style="stroke:#D9D3D0;stroke-width:1;" width="69.0293" x="565.7832" y="98.7373"/><text fill="#D9D3D0" font-family="Verdana" font-size="14" lengthAdjust="spacing" textLength="39.6963" x="580.4497" y="119.8125">Cloud</text><text fill="#D9D3D0" font-family="Verdana" font-size="14" lengthAdjust="spacing" textLength="55.0293" x="572.7832" y="136.8271">Storage</text><rect fill="#003153" height="48.0293" rx="2.5" ry="2.5" style="stroke:#D9D3D0;stroke-width:1;" width="69.0293" x="565.7832" y="1776.0942"/><text fill="#D9D3D0" font-family="Verdana" font-size="14" lengthAdjust="spacing" textLength="39.6963" x="580.4497" y="1797.1694">Cloud</text><text fill="#D9D3D0" font-family="Verdana" font-size="14" lengthAdjust="spacing" textLength="55.0293" x="572.7832" y="1814.1841">Storage</text><rect fill="#003153" height="48.0293" rx="2.5" ry="2.5" style="stroke:#D9D3D0;stroke-width:1;" width="93.126" x="664.8125" y="98.7373"/><text fill="#D9D3D0" font-family="Verdana" font-size="14" lengthAdjust="spacing" textLength="49.3555" x="686.6978" y="119.8125">Gemini</text><text fill="#D9D3D0" font-family="Verdana" font-size="14" lengthAdjust="spacing" textLength="79.126" x="671.8125" y="136.8271">(Vertex AI)</text><rect fill="#003153" height="48.0293" rx="2.5" ry="2.5" style="stroke:#D9D3D0;stroke-width:1;" width="93.126" x="664.8125" y="1776.0942"/><text fill="#D9D3D0" font-family="Verdana" font-size="14" lengthAdjust="spacing" textLength="49.3555" x="686.6978" y="1797.1694">Gemini</text><text fill="#D9D3D0" font-family="Verdana" font-size="14" lengthAdjust="spacing" textLength="79.126" x="671.8125" y="1814.1841">(Vertex AI)</text><text fill="#D9D3D0" font-family="Verdana" font-size="14" lengthAdjust="spacing" textLength="81.1699" x="878.4141" y="144.8271">PostgreSQL</text><path d="M903.999,94.752 C903.999,84.752 921.999,84.752 921.999,84.752 C921.999,84.752 939.999,84.752 939.999,94.752 L939.999,120.752 C939.999,130.752 921.999,130.752 921.999,130.752 C921.999,130.752 903.999,130.752 903.999,120.752 L903.999,94.752 " fill="#003153" style="stroke:#D9D3D0;stroke-width:1.5;"/><path d="M903.999,94.752 C903.999,104.752 921.999,104.752 921.999,104.752 C921.999,104.752 939.999,104.752 939.999,94.752 " fill="transparent" style="stroke:#D9D3D0;stroke-width:1.5;"/><text fill="#D9D3D0" font-family="Verdana" font-size="14" lengthAdjust="spacing" textLength="81.1699" x="878.4141" y="1790.1694">PostgreSQL</text><path d="M903.999,1803.1089 C903.999,1793.1089 921.999,1793.1089 921.999,1793.1089 C921.999,1793.1089 939.999,1793.1089 939.999,1803.1089 L939.999,1829.1089 C939.999,1839.1089 921.999,1839.1089 921.999,1839.1089 C921.999,1839.1089 903.999,1839.1089 903.999,1829.1089 L903.999,1803.1089 " fill="#003153" style="stroke:#D9D3D0;stroke-width:1.5;"/><path d="M903.999,1803.1089 C903.999,1813.1089 921.999,1813.1089 921.999,1813.1089 C921.999,1813.1089 939.999,1813.1089 939.999,1803.1089 " fill="transparent" style="stroke:#D9D3D0;stroke-width:1.5;"/><rect fill="#003153" height="48.0293" rx="2.5" ry="2.5" style="stroke:#D9D3D0;stroke-width:1;" width="73.7734" x="985.584" y="98.7373"/><text fill="#D9D3D0" font-family="Verdana" font-size="14" lengthAdjust="spacing" textLength="23.9053" x="1010.5181" y="119.8125">API</text><text fill="#D9D3D0" font-family="Verdana" font-size="14" lengthAdjust="spacing" textLength="59.7734" x="992.584" y="136.8271">Function</text><rect fill="#003153" height="48.0293" rx="2.5" ry="2.5" style="stroke:#D9D3D0;stroke-width:1;" width="73.7734" x="985.584" y="1776.0942"/><text fill="#D9D3D0" font-family="Verdana" font-size="14" lengthAdjust="spacing" textLength="23.9053" x="1010.5181" y="1797.1694">API</text><text fill="#D9D3D0" font-family="Verdana" font-size="14" lengthAdjust="spacing" textLength="59.7734" x="992.584" y="1814.1841">Function</text><g><title>Cloud</title><rect fill="#003153" height="59.7993" style="stroke:#D9D3D0;stroke-width:1;" width="10" x="225.1855" y="254.9639"/></g><g><title>Ingestion</title><rect fill="#003153" height="1430.7324" style="stroke:#D9D3D0;stroke-width:1;" width="10" x="349.7939" y="284.7632"/></g><g><title>Cloud</title><rect fill="#003153" height="29.7993" style="stroke:#D9D3D0;stroke-width:1;" width="10" x="595.2979" y="404.1611"/></g><g><title>Gemini</title><rect fill="#003153" height="171.5952" style="stroke:#D9D3D0;stroke-width:1;" width="10" x="706.3755" y="523.3584"/></g><g><title>PostgreSQL</title><rect fill="#003153" height="243.9932" style="stroke:#D9D3D0;stroke-width:1;" width="10" x="916.999" y="915.1475"/></g><g><title>PostgreSQL</title><rect fill="#003153" height="29.7993" style="stroke:#D9D3D0;stroke-width:1;" width="10" x="916.999" y="1500.9004"/></g><g><title>API</title><rect fill="#003153" height="97.1973" style="stroke:#D9D3D0;stroke-width:1;" width="10" x="1017.4707" y="1248.3379"/></g><g><title>API</title><rect fill="#003153" height="29.7993" style="stroke:#D9D3D0;stroke-width:1;" width="10" x="1017.4707" y="1560.499"/></g><rect fill="#003153" height="3" style="stroke:#003153;stroke-width:1;" width="1239.5474" x="5" y="178.6663"/><line style="stroke:#D9D3D0;stroke-width:0.5;" x1="5" x2="1244.5474" y1="178.6663" y2="178.6663"/><line style="stroke:#D9D3D0;stroke-width:0.5;" x1="5" x2="1244.5474" y1="181.6663" y2="181.6663"/><rect fill="#003153" height="23.7993" style="stroke:#D9D3D0;stroke-width:1;" width="233.3306" x="508.1084" y="167.7666"/><text fill="#D9D3D0" font-family="Verdana" font-size="13" font-weight="bold" lengthAdjust="spacing" textLength="214.8872" x="514.1084" y="184.8364">Recepci&#243;n y Descarga de PDF</text><polygon fill="#D9D3D0" points="213.1855,250.9639,223.1855,254.9639,213.1855,258.9639,217.1855,254.9639" style="stroke:#D9D3D0;stroke-width:1;"/><line style="stroke:#D9D3D0;stroke-width:1;" x1="54.8701" x2="219.1855" y1="254.9639" y2="254.9639"/><text fill="#D9D3D0" font-family="Verdana" font-size="13" lengthAdjust="spacing" textLength="138.5376" x="70.759" y="218.6357">Nuevo email con PDF</text><text fill="#D9D3D0" font-family="Verdana" font-size="13" lengthAdjust="spacing" textLength="151.3154" x="64.3701" y="234.4351">(orden import/export o</text><text fill="#D9D3D0" font-family="Verdana" font-size="13" lengthAdjust="spacing" textLength="124.4585" x="77.7986" y="250.2344">llegada ferroviaria)</text><polygon fill="#D9D3D0" points="337.7939,280.7632,347.7939,284.7632,337.7939,288.7632,341.7939,284.7632" style="stroke:#D9D3D0;stroke-width:1;"/><line style="stroke:#D9D3D0;stroke-width:1;" x1="235.1855" x2="343.7939" y1="284.7632" y2="284.7632"/><text fill="#D9D3D0" font-family="Verdana" font-size="13" lengthAdjust="spacing" textLength="95.6084" x="244.6855" y="280.0337">Trigger evento</text><polygon fill="#D9D3D0" points="65.8701,340.5625,55.8701,344.5625,65.8701,348.5625,61.8701,344.5625" style="stroke:#D9D3D0;stroke-width:1;"/><line style="stroke:#D9D3D0;stroke-width:1;" x1="59.8701" x2="348.7939" y1="344.5625" y2="344.5625"/><text fill="#D9D3D0" font-family="Verdana" font-size="13" lengthAdjust="spacing" textLength="154.3496" x="125.1572" y="339.833">Descarga PDF del email</text><polygon fill="#D9D3D0" points="337.7939,370.3618,347.7939,374.3618,337.7939,378.3618,341.7939,374.3618" style="stroke:#D9D3D0;stroke-width:1;"/><line style="stroke:#D9D3D0;stroke-width:1;stroke-dasharray:2.0,2.0;" x1="54.8701" x2="343.7939" y1="374.3618" y2="374.3618"/><text fill="#D9D3D0" font-family="Verdana" font-size="13" lengthAdjust="spacing" textLength="65.3301" x="169.667" y="369.6323">PDF bytes</text><polygon fill="#D9D3D0" points="583.2979,400.1611,593.2979,404.1611,583.2979,408.1611,587.2979,404.1611" style="stroke:#D9D3D0;stroke-width:1;"/><line style="stroke:#D9D3D0;stroke-width:1;" x1="359.7939" x2="589.2979" y1="404.1611" y2="404.1611"/><text fill="#D9D3D0" font-family="Verdana" font-size="13" lengthAdjust="spacing" textLength="146.1992" x="404.4463" y="399.4316">Almacena PDF original</text><polygon fill="#D9D3D0" points="370.7939,429.9604,360.7939,433.9604,370.7939,437.9604,366.7939,433.9604" style="stroke:#D9D3D0;stroke-width:1;"/><line style="stroke:#D9D3D0;stroke-width:1;stroke-dasharray:2.0,2.0;" x1="364.7939" x2="599.2979" y1="433.9604" y2="433.9604"/><text fill="#D9D3D0" font-family="Verdana" font-size="13" lengthAdjust="spacing" textLength="137.9346" x="411.0786" y="429.231">URL almacenamiento</text><rect fill="#003153" height="3" style="stroke:#003153;stroke-width:1;" width="1239.5474" x="5" y="462.8601"/><line style="stroke:#D9D3D0;stroke-width:0.5;" x1="5" x2="1244.5474" y1="462.8601" y2="462.8601"/><line style="stroke:#D9D3D0;stroke-width:0.5;" x1="5" x2="1244.5474" y1="465.8601" y2="465.8601"/><rect fill="#003153" height="23.7993" style="stroke:#D9D3D0;stroke-width:1;" width="227.2686" x="511.1394" y="451.9604"/><text fill="#D9D3D0" font-family="Verdana" font-size="13" font-weight="bold" lengthAdjust="spacing" textLength="208.8252" x="517.1394" y="469.0303">Extracci&#243;n de Datos con LLM</text><polygon fill="#D9D3D0" points="694.3755,519.3584,704.3755,523.3584,694.3755,527.3584,698.3755,523.3584" style="stroke:#D9D3D0;stroke-width:1;"/><line style="stroke:#D9D3D0;stroke-width:1;" x1="359.7939" x2="700.3755" y1="523.3584" y2="523.3584"/><text fill="#D9D3D0" font-family="Verdana" font-size="13" lengthAdjust="spacing" textLength="179.5752" x="443.2971" y="502.8296">Solicita extracci&#243;n de datos</text><text fill="#D9D3D0" font-family="Verdana" font-size="13" lengthAdjust="spacing" textLength="233.689" x="416.2402" y="518.6289">(an&#225;lisis visual multimodal del PDF)</text><path d="M721,536.3584 L721,593.3584 L955,593.3584 L955,546.3584 L945,536.3584 L721,536.3584 " fill="#003153" style="stroke:#D9D3D0;stroke-width:1;"/><path d="M945,536.3584 L945,546.3584 L955,546.3584 L945,536.3584 " fill="#003153" style="stroke:#D9D3D0;stroke-width:1;"/><text fill="#D9D3D0" font-family="Verdana" font-size="13" lengthAdjust="spacing" textLength="169.6792" x="727" y="554.4282">El LLM multimodal analiza</text><text fill="#D9D3D0" font-family="Verdana" font-size="13" lengthAdjust="spacing" textLength="189.1982" x="727" y="570.2275">visualmente el PDF completo</text><text fill="#D9D3D0" font-family="Verdana" font-size="13" lengthAdjust="spacing" textLength="213.8525" x="727" y="586.0269">sin necesidad de OCR tradicional</text><line style="stroke:#D9D3D0;stroke-width:1;stroke-dasharray:2.0,2.0;" x1="716.3755" x2="758.3755" y1="636.355" y2="636.355"/><line style="stroke:#D9D3D0;stroke-width:1;stroke-dasharray:2.0,2.0;" x1="758.3755" x2="758.3755" y1="636.355" y2="649.355"/><line style="stroke:#D9D3D0;stroke-width:1;stroke-dasharray:2.0,2.0;" x1="717.3755" x2="758.3755" y1="649.355" y2="649.355"/><polygon fill="#D9D3D0" points="727.3755,645.355,717.3755,649.355,727.3755,653.355,723.3755,649.355" style="stroke:#D9D3D0;stroke-width:1;"/><text fill="#D9D3D0" font-family="Verdana" font-size="13" lengthAdjust="spacing" textLength="80.2725" x="771.551" y="615.8262">Procesa PDF</text><text fill="#D9D3D0" font-family="Verdana" font-size="13" lengthAdjust="spacing" textLength="176.6235" x="723.3755" y="631.6255">Extrae datos estructurados</text><polygon fill="#D9D3D0" points="370.7939,690.9536,360.7939,694.9536,370.7939,698.9536,366.7939,694.9536" style="stroke:#D9D3D0;stroke-width:1;"/><line style="stroke:#D9D3D0;stroke-width:1;stroke-dasharray:2.0,2.0;" x1="364.7939" x2="710.3755" y1="694.9536" y2="694.9536"/><text fill="#D9D3D0" font-family="Verdana" font-size="13" lengthAdjust="spacing" textLength="167.2925" x="451.9385" y="674.4248">JSON con datos extra&#237;dos</text><text fill="#D9D3D0" font-family="Verdana" font-size="13" lengthAdjust="spacing" textLength="130.895" x="470.1372" y="690.2241">+ confidence scores</text><rect fill="#003153" height="3" style="stroke:#003153;stroke-width:1;" width="1239.5474" x="5" y="723.8533"/><line style="stroke:#D9D3D0;stroke-width:0.5;" x1="5" x2="1244.5474" y1="723.8533" y2="723.8533"/><line style="stroke:#D9D3D0;stroke-width:0.5;" x1="5" x2="1244.5474" y1="726.8533" y2="726.8533"/><rect fill="#003153" height="23.7993" style="stroke:#D9D3D0;stroke-width:1;" width="234.854" x="507.3467" y="712.9536"/><text fill="#D9D3D0" font-family="Verdana" font-size="13" font-weight="bold" lengthAdjust="spacing" textLength="216.4106" x="513.3467" y="730.0234">Validaci&#243;n Anti-Alucinaciones</text><line style="stroke:#D9D3D0;stroke-width:1;" x1="359.7939" x2="401.7939" y1="831.7495" y2="831.7495"/><line style="stroke:#D9D3D0;stroke-width:1;" x1="401.7939" x2="401.7939" y1="831.7495" y2="844.7495"/><line style="stroke:#D9D3D0;stroke-width:1;" x1="360.7939" x2="401.7939" y1="844.7495" y2="844.7495"/><polygon fill="#D9D3D0" points="370.7939,840.7495,360.7939,844.7495,370.7939,848.7495,366.7939,844.7495" style="stroke:#D9D3D0;stroke-width:1;"/><text fill="#D9D3D0" font-family="Verdana" font-size="13" lengthAdjust="spacing" textLength="194.2446" x="375.4236" y="763.8228">Validaci&#243;n anti-alucinaciones:</text><text fill="#D9D3D0" font-family="Verdana" font-size="13" lengthAdjust="spacing" textLength="152.6992" x="396.1963" y="779.6221">- Consistencia de datos</text><text fill="#D9D3D0" font-family="Verdana" font-size="13" lengthAdjust="spacing" textLength="211.5039" x="366.7939" y="795.4214">- Campos obligatorios presentes</text><text fill="#D9D3D0" font-family="Verdana" font-size="13" lengthAdjust="spacing" textLength="199.1958" x="372.948" y="811.2207">- Valores en rangos esperados</text><text fill="#D9D3D0" font-family="Verdana" font-size="13" lengthAdjust="spacing" textLength="209.4409" x="367.8254" y="827.02">- Confidence scores &gt; threshold</text><path d="M218,859.7495 L282.0493,859.7495 L282.0493,867.5488 L272.0493,877.5488 L218,877.5488 L218,859.7495 " fill="#003153" style="stroke:#D9D3D0;stroke-width:1;"/><rect fill="transparent" height="848.7461" style="stroke:#D9D3D0;stroke-width:1;" width="1016.5474" x="218" y="859.7495"/><text fill="#D9D3D0" font-family="Verdana" font-size="13" font-weight="bold" lengthAdjust="spacing" textLength="19.0493" x="233" y="873.8193">alt</text><text fill="#D9D3D0" font-family="Verdana" font-size="11" font-weight="bold" lengthAdjust="spacing" textLength="134.7661" x="297.0493" y="872.8086">[Validaci&#243;n EXITOSA]</text><polygon fill="#D9D3D0" points="904.999,911.1475,914.999,915.1475,904.999,919.1475,908.999,915.1475" style="stroke:#D9D3D0;stroke-width:1;"/><line style="stroke:#D9D3D0;stroke-width:1;" x1="359.7939" x2="910.999" y1="915.1475" y2="915.1475"/><text fill="#D9D3D0" font-family="Verdana" font-size="13" lengthAdjust="spacing" textLength="198.6816" x="539.0557" y="894.6187">INSERT orden (import/export)</text><text fill="#D9D3D0" font-family="Verdana" font-size="13" lengthAdjust="spacing" textLength="187.2813" x="544.7559" y="910.418">O INSERT llegada ferroviaria</text><polygon fill="#D9D3D0" points="370.7939,940.9468,360.7939,944.9468,370.7939,948.9468,366.7939,944.9468" style="stroke:#D9D3D0;stroke-width:1;"/><line style="stroke:#D9D3D0;stroke-width:1;stroke-dasharray:2.0,2.0;" x1="364.7939" x2="915.999" y1="944.9468" y2="944.9468"/><text fill="#D9D3D0" font-family="Verdana" font-size="13" lengthAdjust="spacing" textLength="175.3032" x="550.7449" y="940.2173">Orden/llegada almacenada</text><path d="M294.8823,959.9468 L358.9316,959.9468 L358.9316,967.7461 L348.9316,977.7461 L294.8823,977.7461 L294.8823,959.9468 " fill="#003153" style="stroke:#D9D3D0;stroke-width:1;"/><rect fill="transparent" height="192.1938" style="stroke:#D9D3D0;stroke-width:1;" width="821.9434" x="294.8823" y="959.9468"/><text fill="#D9D3D0" font-family="Verdana" font-size="13" font-weight="bold" lengthAdjust="spacing" textLength="19.0493" x="309.8823" y="974.0166">alt</text><text fill="#D9D3D0" font-family="Verdana" font-size="11" font-weight="bold" lengthAdjust="spacing" textLength="143.6875" x="373.9316" y="973.0059">[Es llegada ferroviaria]</text><polygon fill="#D9D3D0" points="904.999,1011.3447,914.999,1015.3447,904.999,1019.3447,908.999,1015.3447" style="stroke:#D9D3D0;stroke-width:1;"/><line style="stroke:#D9D3D0;stroke-width:1;" x1="359.7939" x2="910.999" y1="1015.3447" y2="1015.3447"/><text fill="#D9D3D0" font-family="Verdana" font-size="13" lengthAdjust="spacing" textLength="204.0771" x="536.3579" y="994.8159">UPDATE stock de contenedores</text><text fill="#D9D3D0" font-family="Verdana" font-size="13" lengthAdjust="spacing" textLength="184.3359" x="546.2285" y="1010.6152">en terminal correspondiente</text><polygon fill="#D9D3D0" points="370.7939,1041.144,360.7939,1045.144,370.7939,1049.144,366.7939,1045.144" style="stroke:#D9D3D0;stroke-width:1;"/><line style="stroke:#D9D3D0;stroke-width:1;stroke-dasharray:2.0,2.0;" x1="364.7939" x2="915.999" y1="1045.144" y2="1045.144"/><text fill="#D9D3D0" font-family="Verdana" font-size="13" lengthAdjust="spacing" textLength="114.4355" x="581.1787" y="1040.4146">Stock actualizado</text><path d="M931,1058.144 L931,1146.144 L1106,1146.144 L1106,1068.144 L1096,1058.144 L931,1058.144 " fill="#003153" style="stroke:#D9D3D0;stroke-width:1;"/><path d="M1096,1058.144 L1096,1068.144 L1106,1068.144 L1096,1058.144 " fill="#003153" style="stroke:#D9D3D0;stroke-width:1;"/><text fill="#D9D3D0" font-family="Verdana" font-size="13" lengthAdjust="spacing" textLength="152.001" x="937" y="1076.2139">Contenedores VAC&#205;OS:</text><text fill="#D9D3D0" font-family="Verdana" font-size="13" lengthAdjust="spacing" textLength="154.8257" x="937" y="1092.0132">Disponibles para export</text><text fill="#D9D3D0" font-family="Verdana" font-size="13" lengthAdjust="spacing" textLength="4.5703" x="937" y="1107.8125">&#160;</text><text fill="#D9D3D0" font-family="Verdana" font-size="13" lengthAdjust="spacing" textLength="152.0962" x="937" y="1123.6118">Contenedores LLENOS:</text><text fill="#D9D3D0" font-family="Verdana" font-size="13" lengthAdjust="spacing" textLength="146.3643" x="937" y="1139.4111">Pendientes de entrega</text><path d="M228,1164.1406 L228,1205.1406 L480,1205.1406 L480,1174.1406 L470,1164.1406 L228,1164.1406 " fill="#003153" style="stroke:#D9D3D0;stroke-width:1;"/><path d="M470,1164.1406 L470,1174.1406 L480,1174.1406 L470,1164.1406 " fill="#003153" style="stroke:#D9D3D0;stroke-width:1;"/><text fill="#D9D3D0" font-family="Verdana" font-size="13" lengthAdjust="spacing" textLength="208.2285" x="234" y="1182.2104">Datos procesados exitosamente</text><text fill="#D9D3D0" font-family="Verdana" font-size="13" lengthAdjust="spacing" textLength="231.0103" x="234" y="1198.0098">Trigger autom&#225;tico de optimizaci&#243;n</text><polygon fill="#D9D3D0" points="1005.4707,1244.3379,1015.4707,1248.3379,1005.4707,1252.3379,1009.4707,1248.3379" style="stroke:#D9D3D0;stroke-width:1;"/><line style="stroke:#D9D3D0;stroke-width:1;" x1="359.7939" x2="1011.4707" y1="1248.3379" y2="1248.3379"/><text fill="#D9D3D0" font-family="Verdana" font-size="13" lengthAdjust="spacing" textLength="175.4111" x="600.9268" y="1227.8091">POST /trigger-optimization</text><text fill="#D9D3D0" font-family="Verdana" font-size="13" lengthAdjust="spacing" textLength="222.187" x="577.5388" y="1243.6084">{"reason": "new_data_ingested"}</text><path d="M1032,1261.3379 L1032,1318.3379 L1221,1318.3379 L1221,1271.3379 L1211,1261.3379 L1032,1261.3379 " fill="#003153" style="stroke:#D9D3D0;stroke-width:1;"/><path d="M1211,1261.3379 L1211,1271.3379 L1221,1271.3379 L1211,1261.3379 " fill="#003153" style="stroke:#D9D3D0;stroke-width:1;"/><text fill="#D9D3D0" font-family="Verdana" font-size="13" lengthAdjust="spacing" textLength="168.4414" x="1038" y="1279.4077">Dispara autom&#225;ticamente</text><text fill="#D9D3D0" font-family="Verdana" font-size="13" lengthAdjust="spacing" textLength="148.9604" x="1038" y="1295.207">Flujo 2: Generaci&#243;n de</text><text fill="#D9D3D0" font-family="Verdana" font-size="13" lengthAdjust="spacing" textLength="116.9429" x="1038" y="1311.0063">Recomendaciones</text><polygon fill="#D9D3D0" points="370.7939,1341.5352,360.7939,1345.5352,370.7939,1349.5352,366.7939,1345.5352" style="stroke:#D9D3D0;stroke-width:1;"/><line style="stroke:#D9D3D0;stroke-width:1;stroke-dasharray:2.0,2.0;" x1="364.7939" x2="1021.4707" y1="1345.5352" y2="1345.5352"/><text fill="#D9D3D0" font-family="Verdana" font-size="13" lengthAdjust="spacing" textLength="138.3154" x="621.9746" y="1340.8057">Optimizaci&#243;n iniciada</text><line style="stroke:#D9D3D0;stroke-width:1;" x1="359.7939" x2="401.7939" y1="1375.3345" y2="1375.3345"/><line style="stroke:#D9D3D0;stroke-width:1;" x1="401.7939" x2="401.7939" y1="1375.3345" y2="1388.3345"/><line style="stroke:#D9D3D0;stroke-width:1;" x1="360.7939" x2="401.7939" y1="1388.3345" y2="1388.3345"/><polygon fill="#D9D3D0" points="370.7939,1384.3345,360.7939,1388.3345,370.7939,1392.3345,366.7939,1388.3345" style="stroke:#D9D3D0;stroke-width:1;"/><text fill="#D9D3D0" font-family="Verdana" font-size="13" lengthAdjust="spacing" textLength="180.521" x="366.7939" y="1370.605">Log: Procesamiento exitoso</text><line style="stroke:#D9D3D0;stroke-width:1;stroke-dasharray:2.0,2.0;" x1="218" x2="1234.5474" y1="1397.3345" y2="1397.3345"/><text fill="#D9D3D0" font-family="Verdana" font-size="11" font-weight="bold" lengthAdjust="spacing" textLength="238.0415" x="223" y="1408.3936">[Validaci&#243;n FALLIDA o baja confianza]</text><path d="M243,1416.7031 L243,1457.7031 L466,1457.7031 L466,1426.7031 L456,1416.7031 L243,1416.7031 " fill="#003153" style="stroke:#D9D3D0;stroke-width:1;"/><path d="M456,1416.7031 L456,1426.7031 L466,1426.7031 L456,1416.7031 " fill="#003153" style="stroke:#D9D3D0;stroke-width:1;"/><text fill="#D9D3D0" font-family="Verdana" font-size="13" lengthAdjust="spacing" textLength="181.251" x="249" y="1434.7729">Datos extra&#237;dos con errores</text><text fill="#D9D3D0" font-family="Verdana" font-size="13" lengthAdjust="spacing" textLength="202.3506" x="249" y="1450.5723">o confidence score &lt; threshold</text><polygon fill="#D9D3D0" points="904.999,1496.9004,914.999,1500.9004,904.999,1504.9004,908.999,1500.9004" style="stroke:#D9D3D0;stroke-width:1;"/><line style="stroke:#D9D3D0;stroke-width:1;" x1="359.7939" x2="910.999" y1="1500.9004" y2="1500.9004"/><text fill="#D9D3D0" font-family="Verdana" font-size="13" lengthAdjust="spacing" textLength="219.4956" x="528.6487" y="1480.3716">INSERT orden/llegada con estado</text><text fill="#D9D3D0" font-family="Verdana" font-size="13" lengthAdjust="spacing" textLength="133.9673" x="571.4128" y="1496.1709">"PENDING_REVIEW"</text><polygon fill="#D9D3D0" points="370.7939,1526.6997,360.7939,1530.6997,370.7939,1534.6997,366.7939,1530.6997" style="stroke:#D9D3D0;stroke-width:1;"/><line style="stroke:#D9D3D0;stroke-width:1;stroke-dasharray:2.0,2.0;" x1="364.7939" x2="920.999" y1="1530.6997" y2="1530.6997"/><text fill="#D9D3D0" font-family="Verdana" font-size="13" lengthAdjust="spacing" textLength="205.7402" x="538.0264" y="1525.9702">Guardada para revisi&#243;n manual</text><polygon fill="#D9D3D0" points="1005.4707,1556.499,1015.4707,1560.499,1005.4707,1564.499,1009.4707,1560.499" style="stroke:#D9D3D0;stroke-width:1;"/><line style="stroke:#D9D3D0;stroke-width:1;" x1="359.7939" x2="1011.4707" y1="1560.499" y2="1560.499"/><text fill="#D9D3D0" font-family="Verdana" font-size="13" lengthAdjust="spacing" textLength="227.5698" x="574.8474" y="1555.7695">POST /notifications/manual-review</text><polygon fill="#D9D3D0" points="370.7939,1586.2983,360.7939,1590.2983,370.7939,1594.2983,366.7939,1590.2983" style="stroke:#D9D3D0;stroke-width:1;"/><line style="stroke:#D9D3D0;stroke-width:1;stroke-dasharray:2.0,2.0;" x1="364.7939" x2="1021.4707" y1="1590.2983" y2="1590.2983"/><text fill="#D9D3D0" font-family="Verdana" font-size="13" lengthAdjust="spacing" textLength="123.8301" x="629.2173" y="1585.5688">Notificaci&#243;n creada</text><path d="M1027,1603.2983 L1027,1660.2983 L1224,1660.2983 L1224,1613.2983 L1214,1603.2983 L1027,1603.2983 " fill="#003153" style="stroke:#D9D3D0;stroke-width:1;"/><path d="M1214,1603.2983 L1214,1613.2983 L1224,1613.2983 L1214,1603.2983 " fill="#003153" style="stroke:#D9D3D0;stroke-width:1;"/><text fill="#D9D3D0" font-family="Verdana" font-size="13" lengthAdjust="spacing" textLength="143.3745" x="1033" y="1621.3682">Notificaci&#243;n enviada a</text><text fill="#D9D3D0" font-family="Verdana" font-size="13" lengthAdjust="spacing" textLength="176.5474" x="1033" y="1637.1675">operadores para validaci&#243;n</text><text fill="#D9D3D0" font-family="Verdana" font-size="13" lengthAdjust="spacing" textLength="102.1592" x="1033" y="1652.9668">manual del PDF</text><line style="stroke:#D9D3D0;stroke-width:1;" x1="359.7939" x2="401.7939" y1="1687.4956" y2="1687.4956"/><line style="stroke:#D9D3D0;stroke-width:1;" x1="401.7939" x2="401.7939" y1="1687.4956" y2="1700.4956"/><line style="stroke:#D9D3D0;stroke-width:1;" x1="360.7939" x2="401.7939" y1="1700.4956" y2="1700.4956"/><polygon fill="#D9D3D0" points="370.7939,1696.4956,360.7939,1700.4956,370.7939,1704.4956,366.7939,1700.4956" style="stroke:#D9D3D0;stroke-width:1;"/><text fill="#D9D3D0" font-family="Verdana" font-size="13" lengthAdjust="spacing" textLength="199.8433" x="366.7939" y="1682.7661">Log: Requiere revisi&#243;n manual</text><path d="M13,1720.4956 L13,1761.4956 L963,1761.4956 L963,1730.4956 L953,1720.4956 L13,1720.4956 " fill="#003153" style="stroke:#D9D3D0;stroke-width:1;"/><path d="M953,1720.4956 L953,1730.4956 L963,1730.4956 L953,1720.4956 " fill="#003153" style="stroke:#D9D3D0;stroke-width:1;"/><text fill="#D9D3D0" font-family="Verdana" font-size="13" lengthAdjust="spacing" textLength="297.6479" x="334.968" y="1738.5654">El sistema garantiza que solo datos validados</text><text fill="#D9D3D0" font-family="Verdana" font-size="13" lengthAdjust="spacing" textLength="276.231" x="334.968" y="1754.3647">entran al flujo de optimizaci&#243;n autom&#225;tica</text><!--SRC=[ZLTBRYCt4DttAIfQZP4OHh8KuW5aIpOKQ2H5yZXP231ApRBC6JQfa6pv4-G8ESGS8AiSmHTBaUoMkYKvCzuqnSzZrNlreR_p3rGGB5L9QokrpzndgTTeiG1BRcsqem_a7AxeWfHvx5bh7i7RaXeR7VrHaixhZJqbLnfoqfvibddf5S6LAZyP-B4BGxqYvn44mRH_vU0P1a_UOfxBrtzrcEsZDoxBCFV6GcTGe5HyQ6cU5dhsGBfq7K2NPZA-tijShb5xw5mgKug5dfRBitcvZBjupCFsjcI0D7gXhqgTXr65MCqVHPspDUnQt5cDs_kkgP1QBlIxMxAUdg0tF8cRqtmcqECI7K5dQfnVMPh_Eehh_OisJcywt3ECPxBi_1ncbDCwqVGCVN8vsbND8voVPrda14xVLsvtOLpInW152dEZmqOsq5X16cInDjQVqLFuW5befMY50k6UMEADH2ln9AWWD-YfPZ9zmXrRkhfmO-LgHHPemvARtPaTeuBsWRBjOW9Zoxixfu97WbGolVQhVMdOidpsvFQWAd6wq5C5SWmcCCCcIergPrmjOlNTX_yu6m5M28MCVZMSg0y7MOw5RsHxDFfGoT8mBuL35-P6iUIS1zG-Bi9n5WdrwnSbdNImaQv41KMfl2oCu65WXfrgg5C5cJOyPayVMD3xUX9WeA8j3GHaAkGBybf2BqAkGe9bsukr8dOOm4aDciFEIO4Yc3Uvd77oes3RJQ2Jj81mQvQbsoADjOzJQ_Wefh2BD5N-0VDXozoNZ1HolN6s8S4lyyau4bcT2G2l_uX0p_TX_bwAK7J0vOOhLLEUolEWpYqxAZ3HszDUdlPKcNCa1Fl97UhJkBzv5CDHR1xjBlGfN79vbCwp6H8Rwl42SdevC4ikXJnd9VzOivM1vxY1mOFLm9beKQyY9skAV5J0RVVWFVW7_ZuO9RWuAjyoR_3xy6OoxsKi6K3Bd_u5bzpnV32xWPJtxrg9VxBGathzI068U5jQkLI5t_sBVQKc0VciFb-dZS1aJp1suDw4Fshonsc_TpC0vqt-EH3BSZFB908L2yrkS6ifGaBpYarzIeGifItaePNp2CRUb37uXTdkRUTDvMRwksnS3BUzozU_9_DkOxqlmzrogNWvD4D8l6PlGOn6Wt4ROKgLwIuuoWFBF6tNjmbM_OZVHgYpiTdM1RFXAhohkfM5CNlMAHT5J2J9CrWqwAehE9RU5AzVk1kPO8nPSy5WgcAGPIrp3YEDsnId_6H-0sS-mPtMvrEt_RDZ2HqtjIvqD3tUXPPu9oC4YSvVxLWBJUzGcdesyHxetbdSSYWzDtxgSYdGd5LrUQrMkPCQtYsgLCuEYEPx3cAyoGLmUU6K5xWlH-pL1zGqO4PcjIsCgQzKUfWi8yNlWsPQN_L6es6_1mQM-0bJpKFzWjyc-QvWnYeQqivMpW93xbTG-BbHORwYzNvLsUP-l8YVTu8V59tfODmVZg_lPeFRuU2tpZSMa-iIhGXOKLzBtA4Y6GLgJjotul-jK6G7v3q7HrXoPmdZD83Iu_60EoBzkC98ekGSnVyZ_5i1smOXlP6nLjPofDflwogosKL1jIEPNlV-hmcq7t4pVg5BOf4F-0mjF6isprqmPSq8uoVO3qaqVax4fbSWhDXMxeml2FmF03YZJDMia_sXkKCiQSWjLC5zpChzmjBCuTs3uZy0]--></g></svg>