<svg xmlns="http://www.w3.org/2000/svg" xmlns:xlink="http://www.w3.org/1999/xlink" contentStyleType="text/css" data-diagram-type="SEQUENCE" height="1876px" preserveAspectRatio="none" style="width:1311px;height:1876px;background:#003153;" version="1.1" viewBox="0 0 1311 1876" width="1311px" zoomAndPan="magnify"><title>Flujo 1: Ingesta de PDFs y Extracci&#243;n de Datos</title><defs/><g><rect fill="#003153" height="1876" style="stroke:transparent;stroke-width:1;" width="1311" x="0" y="0"/><text fill="#D9D3D0" font-family="Verdana" font-size="22" font-weight="bold" lengthAdjust="spacing" textLength="578.3271" x="365.1101" y="37.1182">Flujo 1: Ingesta de PDFs y Extracci&#243;n de Datos</text><g><title>Cloud</title><rect fill="#003153" height="59.7993" style="stroke:#D9D3D0;stroke-width:1;" width="10" x="228.1855" y="254.9639"/></g><g><title>Ingestion Service</title><rect fill="#003153" height="1430.7324" style="stroke:#D9D3D0;stroke-width:1;" width="10" x="364.1528" y="284.7632"/></g><g><title>Cloud</title><rect fill="#003153" height="29.7993" style="stroke:#D9D3D0;stroke-width:1;" width="10" x="609.6567" y="404.1611"/></g><g><title>Gemini</title><rect fill="#003153" height="171.5952" style="stroke:#D9D3D0;stroke-width:1;" width="10" x="720.7344" y="523.3584"/></g><g><title>PostgreSQL</title><rect fill="#003153" height="243.9932" style="stroke:#D9D3D0;stroke-width:1;" width="10" x="931.3579" y="915.1475"/></g><g><title>PostgreSQL</title><rect fill="#003153" height="29.7993" style="stroke:#D9D3D0;stroke-width:1;" width="10" x="931.3579" y="1500.9004"/></g><g><title>API Backend</title><rect fill="#003153" height="97.1973" style="stroke:#D9D3D0;stroke-width:1;" width="10" x="1077.5073" y="1248.3379"/></g><g><title>API Backend</title><rect fill="#003153" height="29.7993" style="stroke:#D9D3D0;stroke-width:1;" width="10" x="1077.5073" y="1560.499"/></g><rect fill="#003153" height="848.7461" style="stroke:#D9D3D0;stroke-width:1;" width="1061.5474" x="233" y="859.7495"/><rect fill="#003153" height="192.1938" style="stroke:#D9D3D0;stroke-width:1;" width="851.873" x="279.9526" y="959.9468"/><rect fill="#003153" height="312.1611" style="stroke:transparent;stroke-width:1;" width="1061.5474" x="233" y="1396.3345"/><g><title>Email Inbox</title><rect fill="transparent" height="1629.3276" width="8" x="53.8701" y="147.7666"/><line style="stroke:#D9D3D0;stroke-width:1;" x1="57" x2="57" y1="147.7666" y2="1777.0942"/></g><g><title>Cloud</title><rect fill="transparent" height="1629.3276" width="8" x="229.1855" y="147.7666"/><line style="stroke:#D9D3D0;stroke-width:1;" x1="232.4185" x2="232.4185" y1="147.7666" y2="1777.0942"/></g><g><title>Ingestion Service</title><rect fill="transparent" height="1629.3276" width="8" x="365.1528" y="147.7666"/><line style="stroke:#D9D3D0;stroke-width:1;" x1="368.9526" x2="368.9526" y1="147.7666" y2="1777.0942"/></g><g><title>Cloud</title><rect fill="transparent" height="1629.3276" width="8" x="610.6567" y="147.7666"/><line style="stroke:#D9D3D0;stroke-width:1;" x1="614.1421" x2="614.1421" y1="147.7666" y2="1777.0942"/></g><g><title>Gemini</title><rect fill="transparent" height="1629.3276" width="8" x="721.7344" y="147.7666"/><line style="stroke:#D9D3D0;stroke-width:1;" x1="725.1714" x2="725.1714" y1="147.7666" y2="1777.0942"/></g><g><title>PostgreSQL</title><rect fill="transparent" height="1629.3276" width="8" x="932.3579" y="147.7666"/><line style="stroke:#D9D3D0;stroke-width:1;" x1="935.4087" x2="935.4087" y1="147.7666" y2="1777.0942"/></g><g><title>API Backend</title><rect fill="transparent" height="1629.3276" width="8" x="1078.5073" y="147.7666"/><line style="stroke:#D9D3D0;stroke-width:1;" x1="1082.3071" x2="1082.3071" y1="147.7666" y2="1777.0942"/></g><text fill="#D9D3D0" font-family="Verdana" font-size="14" lengthAdjust="spacing" textLength="83.7402" x="13" y="127.8125">Email Inbox</text><text fill="#D9D3D0" font-family="Verdana" font-size="14" lengthAdjust="spacing" textLength="51.9463" x="28.897" y="144.8271">Rhenus</text><ellipse cx="57.8701" cy="61.7373" fill="#003153" rx="8" ry="8" style="stroke:#D9D3D0;stroke-width:1;"/><path d="M57.8701,69.7373 L57.8701,96.7373 M44.8701,77.7373 L70.8701,77.7373 M57.8701,96.7373 L44.8701,111.7373 M57.8701,96.7373 L70.8701,111.7373 " fill="transparent" style="stroke:#D9D3D0;stroke-width:1;"/><text fill="#D9D3D0" font-family="Verdana" font-size="14" lengthAdjust="spacing" textLength="83.7402" x="13" y="1790.1694">Email Inbox</text><text fill="#D9D3D0" font-family="Verdana" font-size="14" lengthAdjust="spacing" textLength="51.9463" x="28.897" y="1807.1841">Rhenus</text><ellipse cx="57.8701" cy="1819.1235" fill="#003153" rx="8" ry="8" style="stroke:#D9D3D0;stroke-width:1;"/><path d="M57.8701,1827.1235 L57.8701,1854.1235 M44.8701,1835.1235 L70.8701,1835.1235 M57.8701,1854.1235 L44.8701,1869.1235 M57.8701,1854.1235 L70.8701,1869.1235 " fill="transparent" style="stroke:#D9D3D0;stroke-width:1;"/><rect fill="#003153" height="48.0293" rx="2.5" ry="2.5" style="stroke:#D9D3D0;stroke-width:1;" width="73.5342" x="196.4185" y="98.7373"/><text fill="#D9D3D0" font-family="Verdana" font-size="14" lengthAdjust="spacing" textLength="39.6963" x="213.3374" y="119.8125">Cloud</text><text fill="#D9D3D0" font-family="Verdana" font-size="14" lengthAdjust="spacing" textLength="59.5342" x="203.4185" y="136.8271">Pub/Sub</text><rect fill="#003153" height="48.0293" rx="2.5" ry="2.5" style="stroke:#D9D3D0;stroke-width:1;" width="73.5342" x="196.4185" y="1776.0942"/><text fill="#D9D3D0" font-family="Verdana" font-size="14" lengthAdjust="spacing" textLength="39.6963" x="213.3374" y="1797.1694">Cloud</text><text fill="#D9D3D0" font-family="Verdana" font-size="14" lengthAdjust="spacing" textLength="59.5342" x="203.4185" y="1814.1841">Pub/Sub</text><rect fill="#003153" height="48.0293" rx="2.5" ry="2.5" style="stroke:#D9D3D0;stroke-width:1;" width="138.4004" x="299.9526" y="98.7373"/><text fill="#D9D3D0" font-family="Verdana" font-size="14" lengthAdjust="spacing" textLength="122.3906" x="307.9575" y="119.8125">Ingestion Service</text><text fill="#D9D3D0" font-family="Verdana" font-size="14" lengthAdjust="spacing" textLength="124.4004" x="306.9526" y="136.8271">(Cloud Functions)</text><rect fill="#003153" height="48.0293" rx="2.5" ry="2.5" style="stroke:#D9D3D0;stroke-width:1;" width="138.4004" x="299.9526" y="1776.0942"/><text fill="#D9D3D0" font-family="Verdana" font-size="14" lengthAdjust="spacing" textLength="122.3906" x="307.9575" y="1797.1694">Ingestion Service</text><text fill="#D9D3D0" font-family="Verdana" font-size="14" lengthAdjust="spacing" textLength="124.4004" x="306.9526" y="1814.1841">(Cloud Functions)</text><rect fill="#003153" height="48.0293" rx="2.5" ry="2.5" style="stroke:#D9D3D0;stroke-width:1;" width="69.0293" x="580.1421" y="98.7373"/><text fill="#D9D3D0" font-family="Verdana" font-size="14" lengthAdjust="spacing" textLength="39.6963" x="594.8086" y="119.8125">Cloud</text><text fill="#D9D3D0" font-family="Verdana" font-size="14" lengthAdjust="spacing" textLength="55.0293" x="587.1421" y="136.8271">Storage</text><rect fill="#003153" height="48.0293" rx="2.5" ry="2.5" style="stroke:#D9D3D0;stroke-width:1;" width="69.0293" x="580.1421" y="1776.0942"/><text fill="#D9D3D0" font-family="Verdana" font-size="14" lengthAdjust="spacing" textLength="39.6963" x="594.8086" y="1797.1694">Cloud</text><text fill="#D9D3D0" font-family="Verdana" font-size="14" lengthAdjust="spacing" textLength="55.0293" x="587.1421" y="1814.1841">Storage</text><rect fill="#003153" height="48.0293" rx="2.5" ry="2.5" style="stroke:#D9D3D0;stroke-width:1;" width="93.126" x="679.1714" y="98.7373"/><text fill="#D9D3D0" font-family="Verdana" font-size="14" lengthAdjust="spacing" textLength="49.3555" x="701.0566" y="119.8125">Gemini</text><text fill="#D9D3D0" font-family="Verdana" font-size="14" lengthAdjust="spacing" textLength="79.126" x="686.1714" y="136.8271">(Vertex AI)</text><rect fill="#003153" height="48.0293" rx="2.5" ry="2.5" style="stroke:#D9D3D0;stroke-width:1;" width="93.126" x="679.1714" y="1776.0942"/><text fill="#D9D3D0" font-family="Verdana" font-size="14" lengthAdjust="spacing" textLength="49.3555" x="701.0566" y="1797.1694">Gemini</text><text fill="#D9D3D0" font-family="Verdana" font-size="14" lengthAdjust="spacing" textLength="79.126" x="686.1714" y="1814.1841">(Vertex AI)</text><text fill="#D9D3D0" font-family="Verdana" font-size="14" lengthAdjust="spacing" textLength="81.1699" x="892.7729" y="127.8125">PostgreSQL</text><text fill="#D9D3D0" font-family="Verdana" font-size="14" lengthAdjust="spacing" textLength="107.8984" x="879.4087" y="144.8271">(Data Connect)</text><path d="M918.3579,77.7373 C918.3579,67.7373 936.3579,67.7373 936.3579,67.7373 C936.3579,67.7373 954.3579,67.7373 954.3579,77.7373 L954.3579,103.7373 C954.3579,113.7373 936.3579,113.7373 936.3579,113.7373 C936.3579,113.7373 918.3579,113.7373 918.3579,103.7373 L918.3579,77.7373 " fill="#003153" style="stroke:#D9D3D0;stroke-width:1.5;"/><path d="M918.3579,77.7373 C918.3579,87.7373 936.3579,87.7373 936.3579,87.7373 C936.3579,87.7373 954.3579,87.7373 954.3579,77.7373 " fill="transparent" style="stroke:#D9D3D0;stroke-width:1.5;"/><text fill="#D9D3D0" font-family="Verdana" font-size="14" lengthAdjust="spacing" textLength="81.1699" x="892.7729" y="1790.1694">PostgreSQL</text><text fill="#D9D3D0" font-family="Verdana" font-size="14" lengthAdjust="spacing" textLength="107.8984" x="879.4087" y="1807.1841">(Data Connect)</text><path d="M918.3579,1820.1235 C918.3579,1810.1235 936.3579,1810.1235 936.3579,1810.1235 C936.3579,1810.1235 954.3579,1810.1235 954.3579,1820.1235 L954.3579,1846.1235 C954.3579,1856.1235 936.3579,1856.1235 936.3579,1856.1235 C936.3579,1856.1235 918.3579,1856.1235 918.3579,1846.1235 L918.3579,1820.1235 " fill="#003153" style="stroke:#D9D3D0;stroke-width:1.5;"/><path d="M918.3579,1820.1235 C918.3579,1830.1235 936.3579,1830.1235 936.3579,1830.1235 C936.3579,1830.1235 954.3579,1830.1235 954.3579,1820.1235 " fill="transparent" style="stroke:#D9D3D0;stroke-width:1.5;"/><rect fill="#003153" height="48.0293" rx="2.5" ry="2.5" style="stroke:#D9D3D0;stroke-width:1;" width="138.4004" x="1013.3071" y="98.7373"/><text fill="#D9D3D0" font-family="Verdana" font-size="14" lengthAdjust="spacing" textLength="88.334" x="1038.3403" y="119.8125">API Backend</text><text fill="#D9D3D0" font-family="Verdana" font-size="14" lengthAdjust="spacing" textLength="124.4004" x="1020.3071" y="136.8271">(Cloud Functions)</text><rect fill="#003153" height="48.0293" rx="2.5" ry="2.5" style="stroke:#D9D3D0;stroke-width:1;" width="138.4004" x="1013.3071" y="1776.0942"/><text fill="#D9D3D0" font-family="Verdana" font-size="14" lengthAdjust="spacing" textLength="88.334" x="1038.3403" y="1797.1694">API Backend</text><text fill="#D9D3D0" font-family="Verdana" font-size="14" lengthAdjust="spacing" textLength="124.4004" x="1020.3071" y="1814.1841">(Cloud Functions)</text><g><title>Cloud</title><rect fill="#003153" height="59.7993" style="stroke:#D9D3D0;stroke-width:1;" width="10" x="228.1855" y="254.9639"/></g><g><title>Ingestion Service</title><rect fill="#003153" height="1430.7324" style="stroke:#D9D3D0;stroke-width:1;" width="10" x="364.1528" y="284.7632"/></g><g><title>Cloud</title><rect fill="#003153" height="29.7993" style="stroke:#D9D3D0;stroke-width:1;" width="10" x="609.6567" y="404.1611"/></g><g><title>Gemini</title><rect fill="#003153" height="171.5952" style="stroke:#D9D3D0;stroke-width:1;" width="10" x="720.7344" y="523.3584"/></g><g><title>PostgreSQL</title><rect fill="#003153" height="243.9932" style="stroke:#D9D3D0;stroke-width:1;" width="10" x="931.3579" y="915.1475"/></g><g><title>PostgreSQL</title><rect fill="#003153" height="29.7993" style="stroke:#D9D3D0;stroke-width:1;" width="10" x="931.3579" y="1500.9004"/></g><g><title>API Backend</title><rect fill="#003153" height="97.1973" style="stroke:#D9D3D0;stroke-width:1;" width="10" x="1077.5073" y="1248.3379"/></g><g><title>API Backend</title><rect fill="#003153" height="29.7993" style="stroke:#D9D3D0;stroke-width:1;" width="10" x="1077.5073" y="1560.499"/></g><rect fill="#003153" height="3" style="stroke:#003153;stroke-width:1;" width="1299.5474" x="5" y="178.6663"/><line style="stroke:#D9D3D0;stroke-width:0.5;" x1="5" x2="1304.5474" y1="178.6663" y2="178.6663"/><line style="stroke:#D9D3D0;stroke-width:0.5;" x1="5" x2="1304.5474" y1="181.6663" y2="181.6663"/><rect fill="#003153" height="23.7993" style="stroke:#D9D3D0;stroke-width:1;" width="233.3306" x="538.1084" y="167.7666"/><text fill="#D9D3D0" font-family="Verdana" font-size="13" font-weight="bold" lengthAdjust="spacing" textLength="214.8872" x="544.1084" y="184.8364">Recepci&#243;n y Descarga de PDF</text><polygon fill="#D9D3D0" points="216.1855,250.9639,226.1855,254.9639,216.1855,258.9639,220.1855,254.9639" style="stroke:#D9D3D0;stroke-width:1;"/><line style="stroke:#D9D3D0;stroke-width:1;" x1="57.8701" x2="222.1855" y1="254.9639" y2="254.9639"/><text fill="#D9D3D0" font-family="Verdana" font-size="13" lengthAdjust="spacing" textLength="138.5376" x="73.759" y="218.6357">Nuevo email con PDF</text><text fill="#D9D3D0" font-family="Verdana" font-size="13" lengthAdjust="spacing" textLength="151.3154" x="67.3701" y="234.4351">(orden import/export o</text><text fill="#D9D3D0" font-family="Verdana" font-size="13" lengthAdjust="spacing" textLength="124.4585" x="80.7986" y="250.2344">llegada ferroviaria)</text><polygon fill="#D9D3D0" points="352.1528,280.7632,362.1528,284.7632,352.1528,288.7632,356.1528,284.7632" style="stroke:#D9D3D0;stroke-width:1;"/><line style="stroke:#D9D3D0;stroke-width:1;" x1="238.1855" x2="358.1528" y1="284.7632" y2="284.7632"/><text fill="#D9D3D0" font-family="Verdana" font-size="13" lengthAdjust="spacing" textLength="95.6084" x="253.365" y="280.0337">Trigger evento</text><polygon fill="#D9D3D0" points="68.8701,340.5625,58.8701,344.5625,68.8701,348.5625,64.8701,344.5625" style="stroke:#D9D3D0;stroke-width:1;"/><line style="stroke:#D9D3D0;stroke-width:1;" x1="62.8701" x2="363.1528" y1="344.5625" y2="344.5625"/><text fill="#D9D3D0" font-family="Verdana" font-size="13" lengthAdjust="spacing" textLength="154.3496" x="133.8367" y="339.833">Descarga PDF del email</text><polygon fill="#D9D3D0" points="352.1528,370.3618,362.1528,374.3618,352.1528,378.3618,356.1528,374.3618" style="stroke:#D9D3D0;stroke-width:1;"/><line style="stroke:#D9D3D0;stroke-width:1;stroke-dasharray:2.0,2.0;" x1="57.8701" x2="358.1528" y1="374.3618" y2="374.3618"/><text fill="#D9D3D0" font-family="Verdana" font-size="13" lengthAdjust="spacing" textLength="65.3301" x="178.3464" y="369.6323">PDF bytes</text><polygon fill="#D9D3D0" points="597.6567,400.1611,607.6567,404.1611,597.6567,408.1611,601.6567,404.1611" style="stroke:#D9D3D0;stroke-width:1;"/><line style="stroke:#D9D3D0;stroke-width:1;" x1="374.1528" x2="603.6567" y1="404.1611" y2="404.1611"/><text fill="#D9D3D0" font-family="Verdana" font-size="13" lengthAdjust="spacing" textLength="146.1992" x="418.8052" y="399.4316">Almacena PDF original</text><polygon fill="#D9D3D0" points="385.1528,429.9604,375.1528,433.9604,385.1528,437.9604,381.1528,433.9604" style="stroke:#D9D3D0;stroke-width:1;"/><line style="stroke:#D9D3D0;stroke-width:1;stroke-dasharray:2.0,2.0;" x1="379.1528" x2="613.6567" y1="433.9604" y2="433.9604"/><text fill="#D9D3D0" font-family="Verdana" font-size="13" lengthAdjust="spacing" textLength="137.9346" x="425.4375" y="429.231">URL almacenamiento</text><rect fill="#003153" height="3" style="stroke:#003153;stroke-width:1;" width="1299.5474" x="5" y="462.8601"/><line style="stroke:#D9D3D0;stroke-width:0.5;" x1="5" x2="1304.5474" y1="462.8601" y2="462.8601"/><line style="stroke:#D9D3D0;stroke-width:0.5;" x1="5" x2="1304.5474" y1="465.8601" y2="465.8601"/><rect fill="#003153" height="23.7993" style="stroke:#D9D3D0;stroke-width:1;" width="227.2686" x="541.1394" y="451.9604"/><text fill="#D9D3D0" font-family="Verdana" font-size="13" font-weight="bold" lengthAdjust="spacing" textLength="208.8252" x="547.1394" y="469.0303">Extracci&#243;n de Datos con LLM</text><polygon fill="#D9D3D0" points="708.7344,519.3584,718.7344,523.3584,708.7344,527.3584,712.7344,523.3584" style="stroke:#D9D3D0;stroke-width:1;"/><line style="stroke:#D9D3D0;stroke-width:1;" x1="374.1528" x2="714.7344" y1="523.3584" y2="523.3584"/><text fill="#D9D3D0" font-family="Verdana" font-size="13" lengthAdjust="spacing" textLength="179.5752" x="457.656" y="502.8296">Solicita extracci&#243;n de datos</text><text fill="#D9D3D0" font-family="Verdana" font-size="13" lengthAdjust="spacing" textLength="233.689" x="430.5991" y="518.6289">(an&#225;lisis visual multimodal del PDF)</text><path d="M735,536.3584 L735,593.3584 L969,593.3584 L969,546.3584 L959,536.3584 L735,536.3584 " fill="#003153" style="stroke:#D9D3D0;stroke-width:1;"/><path d="M959,536.3584 L959,546.3584 L969,546.3584 L959,536.3584 " fill="#003153" style="stroke:#D9D3D0;stroke-width:1;"/><text fill="#D9D3D0" font-family="Verdana" font-size="13" lengthAdjust="spacing" textLength="169.6792" x="741" y="554.4282">El LLM multimodal analiza</text><text fill="#D9D3D0" font-family="Verdana" font-size="13" lengthAdjust="spacing" textLength="189.1982" x="741" y="570.2275">visualmente el PDF completo</text><text fill="#D9D3D0" font-family="Verdana" font-size="13" lengthAdjust="spacing" textLength="213.8525" x="741" y="586.0269">sin necesidad de OCR tradicional</text><line style="stroke:#D9D3D0;stroke-width:1;stroke-dasharray:2.0,2.0;" x1="730.7344" x2="772.7344" y1="636.355" y2="636.355"/><line style="stroke:#D9D3D0;stroke-width:1;stroke-dasharray:2.0,2.0;" x1="772.7344" x2="772.7344" y1="636.355" y2="649.355"/><line style="stroke:#D9D3D0;stroke-width:1;stroke-dasharray:2.0,2.0;" x1="731.7344" x2="772.7344" y1="649.355" y2="649.355"/><polygon fill="#D9D3D0" points="741.7344,645.355,731.7344,649.355,741.7344,653.355,737.7344,649.355" style="stroke:#D9D3D0;stroke-width:1;"/><text fill="#D9D3D0" font-family="Verdana" font-size="13" lengthAdjust="spacing" textLength="80.2725" x="785.9099" y="615.8262">Procesa PDF</text><text fill="#D9D3D0" font-family="Verdana" font-size="13" lengthAdjust="spacing" textLength="176.6235" x="737.7344" y="631.6255">Extrae datos estructurados</text><polygon fill="#D9D3D0" points="385.1528,690.9536,375.1528,694.9536,385.1528,698.9536,381.1528,694.9536" style="stroke:#D9D3D0;stroke-width:1;"/><line style="stroke:#D9D3D0;stroke-width:1;stroke-dasharray:2.0,2.0;" x1="379.1528" x2="724.7344" y1="694.9536" y2="694.9536"/><text fill="#D9D3D0" font-family="Verdana" font-size="13" lengthAdjust="spacing" textLength="167.2925" x="466.2974" y="674.4248">JSON con datos extra&#237;dos</text><text fill="#D9D3D0" font-family="Verdana" font-size="13" lengthAdjust="spacing" textLength="130.895" x="484.4961" y="690.2241">+ confidence scores</text><rect fill="#003153" height="3" style="stroke:#003153;stroke-width:1;" width="1299.5474" x="5" y="723.8533"/><line style="stroke:#D9D3D0;stroke-width:0.5;" x1="5" x2="1304.5474" y1="723.8533" y2="723.8533"/><line style="stroke:#D9D3D0;stroke-width:0.5;" x1="5" x2="1304.5474" y1="726.8533" y2="726.8533"/><rect fill="#003153" height="23.7993" style="stroke:#D9D3D0;stroke-width:1;" width="234.854" x="537.3467" y="712.9536"/><text fill="#D9D3D0" font-family="Verdana" font-size="13" font-weight="bold" lengthAdjust="spacing" textLength="216.4106" x="543.3467" y="730.0234">Validaci&#243;n Anti-Alucinaciones</text><line style="stroke:#D9D3D0;stroke-width:1;" x1="374.1528" x2="416.1528" y1="831.7495" y2="831.7495"/><line style="stroke:#D9D3D0;stroke-width:1;" x1="416.1528" x2="416.1528" y1="831.7495" y2="844.7495"/><line style="stroke:#D9D3D0;stroke-width:1;" x1="375.1528" x2="416.1528" y1="844.7495" y2="844.7495"/><polygon fill="#D9D3D0" points="385.1528,840.7495,375.1528,844.7495,385.1528,848.7495,381.1528,844.7495" style="stroke:#D9D3D0;stroke-width:1;"/><text fill="#D9D3D0" font-family="Verdana" font-size="13" lengthAdjust="spacing" textLength="194.2446" x="389.7825" y="763.8228">Validaci&#243;n anti-alucinaciones:</text><text fill="#D9D3D0" font-family="Verdana" font-size="13" lengthAdjust="spacing" textLength="152.6992" x="410.5552" y="779.6221">- Consistencia de datos</text><text fill="#D9D3D0" font-family="Verdana" font-size="13" lengthAdjust="spacing" textLength="211.5039" x="381.1528" y="795.4214">- Campos obligatorios presentes</text><text fill="#D9D3D0" font-family="Verdana" font-size="13" lengthAdjust="spacing" textLength="199.1958" x="387.3069" y="811.2207">- Valores en rangos esperados</text><text fill="#D9D3D0" font-family="Verdana" font-size="13" lengthAdjust="spacing" textLength="209.4409" x="382.1843" y="827.02">- Confidence scores &gt; threshold</text><path d="M233,859.7495 L297.0493,859.7495 L297.0493,867.5488 L287.0493,877.5488 L233,877.5488 L233,859.7495 " fill="#003153" style="stroke:#D9D3D0;stroke-width:1;"/><rect fill="transparent" height="848.7461" style="stroke:#D9D3D0;stroke-width:1;" width="1061.5474" x="233" y="859.7495"/><text fill="#D9D3D0" font-family="Verdana" font-size="13" font-weight="bold" lengthAdjust="spacing" textLength="19.0493" x="248" y="873.8193">alt</text><text fill="#D9D3D0" font-family="Verdana" font-size="11" font-weight="bold" lengthAdjust="spacing" textLength="134.7661" x="312.0493" y="872.8086">[Validaci&#243;n EXITOSA]</text><polygon fill="#D9D3D0" points="919.3579,911.1475,929.3579,915.1475,919.3579,919.1475,923.3579,915.1475" style="stroke:#D9D3D0;stroke-width:1;"/><line style="stroke:#D9D3D0;stroke-width:1;" x1="374.1528" x2="925.3579" y1="915.1475" y2="915.1475"/><text fill="#D9D3D0" font-family="Verdana" font-size="13" lengthAdjust="spacing" textLength="198.6816" x="553.4146" y="894.6187">INSERT orden (import/export)</text><text fill="#D9D3D0" font-family="Verdana" font-size="13" lengthAdjust="spacing" textLength="187.2813" x="559.1147" y="910.418">O INSERT llegada ferroviaria</text><polygon fill="#D9D3D0" points="385.1528,940.9468,375.1528,944.9468,385.1528,948.9468,381.1528,944.9468" style="stroke:#D9D3D0;stroke-width:1;"/><line style="stroke:#D9D3D0;stroke-width:1;stroke-dasharray:2.0,2.0;" x1="379.1528" x2="930.3579" y1="944.9468" y2="944.9468"/><text fill="#D9D3D0" font-family="Verdana" font-size="13" lengthAdjust="spacing" textLength="175.3032" x="565.1038" y="940.2173">Orden/llegada almacenada</text><path d="M279.9526,959.9468 L344.002,959.9468 L344.002,967.7461 L334.002,977.7461 L279.9526,977.7461 L279.9526,959.9468 " fill="#003153" style="stroke:#D9D3D0;stroke-width:1;"/><rect fill="transparent" height="192.1938" style="stroke:#D9D3D0;stroke-width:1;" width="851.873" x="279.9526" y="959.9468"/><text fill="#D9D3D0" font-family="Verdana" font-size="13" font-weight="bold" lengthAdjust="spacing" textLength="19.0493" x="294.9526" y="974.0166">alt</text><text fill="#D9D3D0" font-family="Verdana" font-size="11" font-weight="bold" lengthAdjust="spacing" textLength="143.6875" x="359.002" y="973.0059">[Es llegada ferroviaria]</text><polygon fill="#D9D3D0" points="919.3579,1011.3447,929.3579,1015.3447,919.3579,1019.3447,923.3579,1015.3447" style="stroke:#D9D3D0;stroke-width:1;"/><line style="stroke:#D9D3D0;stroke-width:1;" x1="374.1528" x2="925.3579" y1="1015.3447" y2="1015.3447"/><text fill="#D9D3D0" font-family="Verdana" font-size="13" lengthAdjust="spacing" textLength="204.0771" x="550.7168" y="994.8159">UPDATE stock de contenedores</text><text fill="#D9D3D0" font-family="Verdana" font-size="13" lengthAdjust="spacing" textLength="184.3359" x="560.5874" y="1010.6152">en terminal correspondiente</text><polygon fill="#D9D3D0" points="385.1528,1041.144,375.1528,1045.144,385.1528,1049.144,381.1528,1045.144" style="stroke:#D9D3D0;stroke-width:1;"/><line style="stroke:#D9D3D0;stroke-width:1;stroke-dasharray:2.0,2.0;" x1="379.1528" x2="930.3579" y1="1045.144" y2="1045.144"/><text fill="#D9D3D0" font-family="Verdana" font-size="13" lengthAdjust="spacing" textLength="114.4355" x="595.5376" y="1040.4146">Stock actualizado</text><path d="M946,1058.144 L946,1146.144 L1121,1146.144 L1121,1068.144 L1111,1058.144 L946,1058.144 " fill="#003153" style="stroke:#D9D3D0;stroke-width:1;"/><path d="M1111,1058.144 L1111,1068.144 L1121,1068.144 L1111,1058.144 " fill="#003153" style="stroke:#D9D3D0;stroke-width:1;"/><text fill="#D9D3D0" font-family="Verdana" font-size="13" lengthAdjust="spacing" textLength="152.001" x="952" y="1076.2139">Contenedores VAC&#205;OS:</text><text fill="#D9D3D0" font-family="Verdana" font-size="13" lengthAdjust="spacing" textLength="154.8257" x="952" y="1092.0132">Disponibles para export</text><text fill="#D9D3D0" font-family="Verdana" font-size="13" lengthAdjust="spacing" textLength="4.5703" x="952" y="1107.8125">&#160;</text><text fill="#D9D3D0" font-family="Verdana" font-size="13" lengthAdjust="spacing" textLength="152.0962" x="952" y="1123.6118">Contenedores LLENOS:</text><text fill="#D9D3D0" font-family="Verdana" font-size="13" lengthAdjust="spacing" textLength="146.3643" x="952" y="1139.4111">Pendientes de entrega</text><path d="M243,1164.1406 L243,1205.1406 L495,1205.1406 L495,1174.1406 L485,1164.1406 L243,1164.1406 " fill="#003153" style="stroke:#D9D3D0;stroke-width:1;"/><path d="M485,1164.1406 L485,1174.1406 L495,1174.1406 L485,1164.1406 " fill="#003153" style="stroke:#D9D3D0;stroke-width:1;"/><text fill="#D9D3D0" font-family="Verdana" font-size="13" lengthAdjust="spacing" textLength="208.2285" x="249" y="1182.2104">Datos procesados exitosamente</text><text fill="#D9D3D0" font-family="Verdana" font-size="13" lengthAdjust="spacing" textLength="231.0103" x="249" y="1198.0098">Trigger autom&#225;tico de optimizaci&#243;n</text><polygon fill="#D9D3D0" points="1065.5073,1244.3379,1075.5073,1248.3379,1065.5073,1252.3379,1069.5073,1248.3379" style="stroke:#D9D3D0;stroke-width:1;"/><line style="stroke:#D9D3D0;stroke-width:1;" x1="374.1528" x2="1071.5073" y1="1248.3379" y2="1248.3379"/><text fill="#D9D3D0" font-family="Verdana" font-size="13" lengthAdjust="spacing" textLength="175.4111" x="638.1245" y="1227.8091">POST /trigger-optimization</text><text fill="#D9D3D0" font-family="Verdana" font-size="13" lengthAdjust="spacing" textLength="222.187" x="614.7366" y="1243.6084">{"reason": "new_data_ingested"}</text><path d="M1092,1261.3379 L1092,1318.3379 L1281,1318.3379 L1281,1271.3379 L1271,1261.3379 L1092,1261.3379 " fill="#003153" style="stroke:#D9D3D0;stroke-width:1;"/><path d="M1271,1261.3379 L1271,1271.3379 L1281,1271.3379 L1271,1261.3379 " fill="#003153" style="stroke:#D9D3D0;stroke-width:1;"/><text fill="#D9D3D0" font-family="Verdana" font-size="13" lengthAdjust="spacing" textLength="168.4414" x="1098" y="1279.4077">Dispara autom&#225;ticamente</text><text fill="#D9D3D0" font-family="Verdana" font-size="13" lengthAdjust="spacing" textLength="148.9604" x="1098" y="1295.207">Flujo 2: Generaci&#243;n de</text><text fill="#D9D3D0" font-family="Verdana" font-size="13" lengthAdjust="spacing" textLength="116.9429" x="1098" y="1311.0063">Recomendaciones</text><polygon fill="#D9D3D0" points="385.1528,1341.5352,375.1528,1345.5352,385.1528,1349.5352,381.1528,1345.5352" style="stroke:#D9D3D0;stroke-width:1;"/><line style="stroke:#D9D3D0;stroke-width:1;stroke-dasharray:2.0,2.0;" x1="379.1528" x2="1081.5073" y1="1345.5352" y2="1345.5352"/><text fill="#D9D3D0" font-family="Verdana" font-size="13" lengthAdjust="spacing" textLength="138.3154" x="659.1724" y="1340.8057">Optimizaci&#243;n iniciada</text><line style="stroke:#D9D3D0;stroke-width:1;" x1="374.1528" x2="416.1528" y1="1375.3345" y2="1375.3345"/><line style="stroke:#D9D3D0;stroke-width:1;" x1="416.1528" x2="416.1528" y1="1375.3345" y2="1388.3345"/><line style="stroke:#D9D3D0;stroke-width:1;" x1="375.1528" x2="416.1528" y1="1388.3345" y2="1388.3345"/><polygon fill="#D9D3D0" points="385.1528,1384.3345,375.1528,1388.3345,385.1528,1392.3345,381.1528,1388.3345" style="stroke:#D9D3D0;stroke-width:1;"/><text fill="#D9D3D0" font-family="Verdana" font-size="13" lengthAdjust="spacing" textLength="180.521" x="381.1528" y="1370.605">Log: Procesamiento exitoso</text><line style="stroke:#D9D3D0;stroke-width:1;stroke-dasharray:2.0,2.0;" x1="233" x2="1294.5474" y1="1397.3345" y2="1397.3345"/><text fill="#D9D3D0" font-family="Verdana" font-size="11" font-weight="bold" lengthAdjust="spacing" textLength="238.0415" x="238" y="1408.3936">[Validaci&#243;n FALLIDA o baja confianza]</text><path d="M257,1416.7031 L257,1457.7031 L480,1457.7031 L480,1426.7031 L470,1416.7031 L257,1416.7031 " fill="#003153" style="stroke:#D9D3D0;stroke-width:1;"/><path d="M470,1416.7031 L470,1426.7031 L480,1426.7031 L470,1416.7031 " fill="#003153" style="stroke:#D9D3D0;stroke-width:1;"/><text fill="#D9D3D0" font-family="Verdana" font-size="13" lengthAdjust="spacing" textLength="181.251" x="263" y="1434.7729">Datos extra&#237;dos con errores</text><text fill="#D9D3D0" font-family="Verdana" font-size="13" lengthAdjust="spacing" textLength="202.3506" x="263" y="1450.5723">o confidence score &lt; threshold</text><polygon fill="#D9D3D0" points="919.3579,1496.9004,929.3579,1500.9004,919.3579,1504.9004,923.3579,1500.9004" style="stroke:#D9D3D0;stroke-width:1;"/><line style="stroke:#D9D3D0;stroke-width:1;" x1="374.1528" x2="925.3579" y1="1500.9004" y2="1500.9004"/><text fill="#D9D3D0" font-family="Verdana" font-size="13" lengthAdjust="spacing" textLength="219.4956" x="543.0076" y="1480.3716">INSERT orden/llegada con estado</text><text fill="#D9D3D0" font-family="Verdana" font-size="13" lengthAdjust="spacing" textLength="133.9673" x="585.7717" y="1496.1709">"PENDING_REVIEW"</text><polygon fill="#D9D3D0" points="385.1528,1526.6997,375.1528,1530.6997,385.1528,1534.6997,381.1528,1530.6997" style="stroke:#D9D3D0;stroke-width:1;"/><line style="stroke:#D9D3D0;stroke-width:1;stroke-dasharray:2.0,2.0;" x1="379.1528" x2="935.3579" y1="1530.6997" y2="1530.6997"/><text fill="#D9D3D0" font-family="Verdana" font-size="13" lengthAdjust="spacing" textLength="205.7402" x="552.3853" y="1525.9702">Guardada para revisi&#243;n manual</text><polygon fill="#D9D3D0" points="1065.5073,1556.499,1075.5073,1560.499,1065.5073,1564.499,1069.5073,1560.499" style="stroke:#D9D3D0;stroke-width:1;"/><line style="stroke:#D9D3D0;stroke-width:1;" x1="374.1528" x2="1071.5073" y1="1560.499" y2="1560.499"/><text fill="#D9D3D0" font-family="Verdana" font-size="13" lengthAdjust="spacing" textLength="227.5698" x="612.0452" y="1555.7695">POST /notifications/manual-review</text><polygon fill="#D9D3D0" points="385.1528,1586.2983,375.1528,1590.2983,385.1528,1594.2983,381.1528,1590.2983" style="stroke:#D9D3D0;stroke-width:1;"/><line style="stroke:#D9D3D0;stroke-width:1;stroke-dasharray:2.0,2.0;" x1="379.1528" x2="1081.5073" y1="1590.2983" y2="1590.2983"/><text fill="#D9D3D0" font-family="Verdana" font-size="13" lengthAdjust="spacing" textLength="123.8301" x="666.415" y="1585.5688">Notificaci&#243;n creada</text><path d="M1087,1603.2983 L1087,1660.2983 L1284,1660.2983 L1284,1613.2983 L1274,1603.2983 L1087,1603.2983 " fill="#003153" style="stroke:#D9D3D0;stroke-width:1;"/><path d="M1274,1603.2983 L1274,1613.2983 L1284,1613.2983 L1274,1603.2983 " fill="#003153" style="stroke:#D9D3D0;stroke-width:1;"/><text fill="#D9D3D0" font-family="Verdana" font-size="13" lengthAdjust="spacing" textLength="143.3745" x="1093" y="1621.3682">Notificaci&#243;n enviada a</text><text fill="#D9D3D0" font-family="Verdana" font-size="13" lengthAdjust="spacing" textLength="176.5474" x="1093" y="1637.1675">operadores para validaci&#243;n</text><text fill="#D9D3D0" font-family="Verdana" font-size="13" lengthAdjust="spacing" textLength="102.1592" x="1093" y="1652.9668">manual del PDF</text><line style="stroke:#D9D3D0;stroke-width:1;" x1="374.1528" x2="416.1528" y1="1687.4956" y2="1687.4956"/><line style="stroke:#D9D3D0;stroke-width:1;" x1="416.1528" x2="416.1528" y1="1687.4956" y2="1700.4956"/><line style="stroke:#D9D3D0;stroke-width:1;" x1="375.1528" x2="416.1528" y1="1700.4956" y2="1700.4956"/><polygon fill="#D9D3D0" points="385.1528,1696.4956,375.1528,1700.4956,385.1528,1704.4956,381.1528,1700.4956" style="stroke:#D9D3D0;stroke-width:1;"/><text fill="#D9D3D0" font-family="Verdana" font-size="13" lengthAdjust="spacing" textLength="199.8433" x="381.1528" y="1682.7661">Log: Requiere revisi&#243;n manual</text><path d="M10,1720.4956 L10,1761.4956 L985,1761.4956 L985,1730.4956 L975,1720.4956 L10,1720.4956 " fill="#003153" style="stroke:#D9D3D0;stroke-width:1;"/><path d="M975,1720.4956 L975,1730.4956 L985,1730.4956 L975,1720.4956 " fill="#003153" style="stroke:#D9D3D0;stroke-width:1;"/><text fill="#D9D3D0" font-family="Verdana" font-size="13" lengthAdjust="spacing" textLength="297.6479" x="344.3296" y="1738.5654">El sistema garantiza que solo datos validados</text><text fill="#D9D3D0" font-family="Verdana" font-size="13" lengthAdjust="spacing" textLength="276.231" x="344.3296" y="1754.3647">entran al flujo de optimizaci&#243;n autom&#225;tica</text><!--SRC=[ZLTBRYCt4DttAIfQZP4OHh8KuW5aIpOKQ2H5yZXP231ApRBC6JQfa6pv4-G8ESGS8AiSmHTBaUoMkYKvCzvqgrbyh7glFlHt_e4AWgKgQMsbzfdxBFKQBHPWoQsDTlI1dCCLNP0oZprhpIDuMrB3qD4V9UcyDkmfkTAGa_PaiynBhmYkLFd9m8zT6EeLEOyW2ARzAmVFC7Zo5lDSllwhmzS-UkEo37DlB7G61Kh5cvRcQQ5d3wHBrm5qwKl6ntkPopLg3vrBPKgnqDDoUJOlbz6At_crRPOSa4R3dEn6vhJGx-9Mk2fr7XRSINL4PNZqc3cxnx56o-gzRNTDXTIImM_9Udg2tZ31fk-PG8zBT0ITgN5-PMd-wuYDENg4IwCrvJxPzo_QkBtf42um_qnQlEKvcsJP-JdCAATr8lOP-kHojAkQUJW_pxB88fo-huZgmhYaZG6AfETC4Hlo8SOAqY2BjR7-Z9x20yn2AqKh50Ztn4cnaMWbdWJTv0OzrTodHpXZosSNRgnShSW2RJX9p6xFZd91-q3PJhW8nfvtTq65Y0Ifv7eTL_lGOB9yzkJse2hrkj1J1NBM9Z33BagDQkTShNBrt8V_E1i1LWY5Z74rWgWt1rcE9NnaUpJwKCdIS2_bInVcHd4ES7PGUxi8sraarAzVb7JImKQw4XKKfVAoC89V0pCSL4ETAWkruNUEz845lQy_0WnKzAM1W4o5V45UI-X5g6v8iEnxiLR40GCugO5pbvmKA89xayiPjmiKxBi9T7BQGZWroz9faSOwngarl1LJsaMQglY0-R1bxaj62jsXiRSXmI_poJWIMUq90A__Y43Fz-7xlHIXJO7B3VUsfZnLv46TMmvKOAAtfxqyxQaovqm8_fCxrATnVdChXgtOtDfTwDDGsYoHPpSaDjJZ1UJoSc2Mt3pvcvNyOyrU1fwZ0OC7hu4hqQ9UHKxM5FceWDlXmNlm3_nyC4fmErM-vTxWz-7DPDxBM3A0LZpz2sxIu_bWTWEfxj-r2lzaeIVr-f464F6sj7Bl2h_x5_jAJGBoMRs_BXk1oP_WxC2z2N_KvO_JVkzc0CwR_7CWbkLcbaa4AXQQm-1XL8I2vXMR9fi8LKfRo4Clvn6CeobZyWkpjMtNJHLc-hji70otlSlNloVpRcEzByFPSgbuEOnFIBncRq6CHeDn6s5AbUik1CelbddQhcyBhFeHdurKPsUpRGXcmrrurtKh3sFrh5CjYbX8ahzWqQ2hxk1OUbEyVk7nP88pPiqDWwcAIPQrt3dCD1vJNFAJ-GsS-GHtMkyF9WlzPySIEgCxNUXeUhmBC_DEHWWIdR_QkHQ6tg4qzTV4Uw1xvt4he7H1-QdBhK1pLTNjjLhbIMhOMbIbd1qG7QRoVeutkG1kBrpo0lVbYBFwW9e6pCYijeqnpPLA3vDbfFW2qIphgzveDEptmC0IFs7gUQXVyDiatpNCs4L3sTagM638_GuAFpSwp5UqtkygszgF1_65KF25eZCTZFl3yVNTR70x7FpM-SPcSbsY5G4hwck99rGaeq3DXVjM_h-LYXo0lEVaYFUfiuHn6a3fyNZ27P5-N64aKNBEulyH_gs4ROEGtiZOAsivKk-tTHVPxBAWiaYkrxF_QmBjPzoCx_IIMEG3FiC8pvh3SvTCMJF3-0hsGnADhnDnw1K8A_QL9-CB0l_B0CueKmthv7yOxX1R6l88LN0VgtA_iJHhU7UX-0y0]--></g></svg>